/* XPM */
static char *YnVzaA__[] = {
/* columns rows colors chars-per-pixel */
"64 64 214 2 ",
"   c #3E520D",
".  c #244519",
"X  c #2C4D1D",
"o  c #294615",
"O  c #314E1E",
"+  c #2D511B",
"@  c #2F581E",
"#  c #34551C",
"$  c #34581C",
"%  c #3C5D1E",
"&  c #3F5515",
"*  c #2D4D22",
"=  c #2D4B28",
"-  c #324E25",
";  c #334D2A",
":  c #2E5325",
">  c #2E532A",
",  c #345424",
"<  c #395526",
"1  c #355B24",
"2  c #3A5A25",
"3  c #35542A",
"4  c #39552C",
"5  c #355B2C",
"6  c #3C5B2C",
"7  c #364D31",
"8  c #355232",
"9  c #3C5533",
"0  c #3D5B32",
"q  c #3E5639",
"w  c #3C5B39",
"e  c #325831",
"r  c #3C6225",
"t  c #3D622C",
"y  c #356429",
"u  c #3D6233",
"i  c #3D623A",
"p  c #3F683C",
"a  c #475700",
"s  c #485702",
"d  c #465801",
"f  c #495B01",
"g  c #45590C",
"h  c #495A08",
"j  c #48570A",
"k  c #495D1C",
"l  c #435915",
"z  c #4D6300",
"x  c #4D630E",
"c  c #506700",
"v  c #536C01",
"b  c #567200",
"n  c #597600",
"m  c #5C7C00",
"M  c #5B7D0B",
"N  c #48601D",
"B  c #517415",
"V  c #507319",
"C  c #465F25",
"Z  c #415D2D",
"A  c #425D34",
"S  c #435E3A",
"D  c #415538",
"F  c #446324",
"G  c #42642D",
"H  c #4A642B",
"J  c #436A2D",
"K  c #4B6123",
"L  c #4D722A",
"P  c #5C7B24",
"I  c #52762B",
"U  c #567829",
"Y  c #446334",
"T  c #496534",
"R  c #446934",
"E  c #4A6C34",
"W  c #44633B",
"Q  c #4A663B",
"!  c #456A3B",
"~  c #4B6B3B",
"^  c #516D3E",
"/  c #526B32",
"(  c #427136",
")  c #4D7334",
"_  c #45713E",
"`  c #4C713C",
"'  c #527334",
"]  c #5C7D32",
"[  c #53733D",
"{  c #54783E",
"}  c #5A7D3D",
"|  c #597539",
" . c #617C2A",
".. c #3B6340",
"X. c #485F43",
"o. c #456541",
"O. c #4A6642",
"+. c #456C44",
"@. c #4D6B42",
"#. c #486B49",
"$. c #526D43",
"%. c #526E49",
"&. c #4D7343",
"*. c #4D754A",
"=. c #4F7A4C",
"-. c #477245",
";. c #537344",
":. c #597545",
">. c #547A44",
",. c #5A7B45",
"<. c #557349",
"1. c #5A764D",
"2. c #57794A",
"3. c #557A4A",
"4. c #5B794E",
"5. c #5B7C4B",
"6. c #4D7751",
"7. c #5A7651",
"8. c #557C52",
"9. c #5C7C51",
"0. c #567152",
"q. c #627E4D",
"w. c #617D53",
"e. c #627E58",
"r. c #5F8200",
"t. c #5D8008",
"y. c #5D8113",
"u. c #618401",
"i. c #678900",
"p. c #6B8C00",
"a. c #668A0C",
"s. c #718E00",
"d. c #6C9400",
"f. c #749301",
"g. c #799701",
"h. c #769902",
"j. c #7B9A00",
"k. c #74940D",
"l. c #668917",
"z. c #7BA118",
"x. c #5B8023",
"c. c #688929",
"v. c #759526",
"b. c #799724",
"n. c #7D9C24",
"m. c #7C9C2A",
"M. c #759629",
"N. c #648535",
"B. c #688B37",
"V. c #7F9E36",
"C. c #769937",
"Z. c #5C824C",
"A. c #5D8141",
"S. c #5D8353",
"D. c #5F8258",
"F. c #628246",
"G. c #63844D",
"H. c #648A4C",
"J. c #688A46",
"K. c #6B9040",
"L. c #739442",
"P. c #70964B",
"I. c #638354",
"U. c #698752",
"Y. c #638954",
"T. c #6A8B55",
"R. c #658459",
"E. c #69865A",
"W. c #658C5B",
"Q. c #6B8C5C",
"!. c #6A9056",
"~. c #6D915D",
"^. c #71915F",
"/. c #7EA556",
"(. c #678B60",
"). c #6F8E62",
"_. c #708B6A",
"`. c #729161",
"'. c #779B64",
"]. c #799B66",
"[. c #749169",
"{. c #7A9B68",
"}. c #819F00",
"|. c #85A601",
" X c #88A701",
".X c #87A802",
"XX c #8BAB04",
"oX c #8EAF08",
"OX c #8FB007",
"+X c #8FB009",
"@X c #90B107",
"#X c #92B40B",
"$X c #96B90C",
"%X c #99BB0F",
"&X c #82A218",
"*X c #90AE1A",
"=X c #9CBE12",
"-X c #93B41B",
";X c #97B91B",
":X c #9ABC1A",
">X c #91B517",
",X c #83A423",
"<X c #8CAD22",
"1X c #84A52C",
"2X c #8BAA2B",
"3X c #88A726",
"4X c #93B423",
"5X c #97B823",
"6X c #87AA37",
"7X c #9FC113",
"8X c #A0C113",
"9X c #829C6C",
"0X c #829D70",
"qX c #83A46B",
/* pixels */
"G $ ^.~.! W 3 u 6 ,.q.;.< 4 S 9 ; D - D A E.! , Y t 9.~.;.Q ;.%.$.S S <.Q 9 Q @.3 6 T.;.,.6 6 Y u * 5 * 3 3 3 9.R.= 0 9 O.S %.o.",
"r E ].Z.Y 5 6 ~ ,.:.,.~ 0 ; S q D D ; 9 A E.;.R ~ >.~.W.T A %.1.O.A @.A W ; %.T Y , ;.2 [ 5.G.Y ~ Q.0 . 0 W S 1.1.8 8 3 W @.%.1.",
"{ !.^.Y 0 0 &.4.;.A ~ ^ T ; 0 9 D D ; 4 A e.;.~ ;.S.E.;.4 3 Q %.A S $.4 S 4 %.Z Q < ~ 2 Y ,.].5.! 9.9.0 4 9.4 5.! ! 4 > i @.S 7.",
"G.{.~ , u @.$.;.6 + G / T Z A S S S D Z Z 1.Q Y 3.5.~ 5 0 4 0 O.; Q S Q Q @.$.6 $.6 ^ ~ Y Y U.{.;.2 E.w.3 9.3 <.W W S 4 0 W 0 @.",
"Z.~., 0 W @.0 0 T 6 6 G T :.Q $.$.$.S D 4 @.0 6 5.@.0 0 @.o.A O.A A 0 $.1.<.$.Q :.Q Z T q.A ^ ^.`.$.A q.Z ^ Q ! u 6 ;.0 Q u ! ! ",
"W.W.5 W 0 ! W ! [ E J t ,.U.A 0 1.%.$.Z < ! Y A ;.@.W Q <.! A #.$.4 A Q E.Q %.;.$.:.6 Z :./ Z :.U.q.T Z A ^ A ~ ~ u 4.! *.u o.! ",
"~.>.i 5 e W 4.<.G R ,.C '.G.2 3 :.$.$.Z 4 W A W o.O.W o.#.W w W $.0 0 Q Q.0 ~ ,.T :.A T ^ T Q / Z ^ ^ Z Z ^ < ~ 5.:.3.! 3.u u &.",
"3., Y : i W S.t , G H.% qX,.6 [ ^ T $.A Z A 6 0 ! ! S S O.#.X.9 Q Y 5 <.G.Y 0 :.1.^ Z [ $.^ ^ D Z / - ^ ^ Z ,.2 5.Z._ u 3.&.5 S.",
"! y 5 : i 8.! , 2 H.L ) qX/ G ~ E ^ < O A ^ A 3 0 W W 0 #.S o.0 , T u {.;.Y T Y Y T Q T / $.$./ Z T Z Z T ;.^ G ! Y.u &.! >._ 4.",
"! 5 * 5 3.3.0 5 1 G.J >.Q.Z.G G G Z # 6 T Q Z ; 4 A 0 8 W ! ~ c.6X>X7X8X7X7X-Xm.| Y A Y ^ $.^ Q T H Z 2 Z ;.[ Y Y 5.R :.` _ _ S.",
"Y 5 : ! (.<.X i t { F } { E t 2 C < < Z T T A Z ; A < 0 0 B.<X:X7X7X7X7X7X7X7X7X-Xc.Z A Q Q Q ^ ^ ^ T Z Z :.:.! 6 >.&.! ~ ! &.Z.",
"y 1 p 3.D.W : ~ ` t J L E + Y G 2 % T E C Y / A < Z 4 A b.:X7X8X7X7X7X7X8X7X7X7X8X=X&XT H D Q :.^ ^ ^ T T ,.,.~ 2 ;.:.5 2 t *.;.",
": 1 Z.D.! 5 5 _ Z.r r F L t ` G # H F.| Z T [ A Z A A b.7X7X7X7X7X%X>X%X7X7X7X7X8X8X=Xb.A Z Q $.Q ~ ^ ~ Y :.w.! 0 Q ;., 3 3 ! ~ ",
"+ 5 Y.S.: 5 ! ~ Z.) $ r G 5.! # E F.H.E < C q.^ Q Q N.:X7X7X7X7X+X|.|..XOX=X7X7X8X8X=X=X .Q Q Q T T :.^ ! ,.T.Q Y < ! 0 W 3 2 0 ",
"@ t S.&.5 &.>.! H.{ $ F ` A.t T G.T.} 2 C T :.$.^ T 2X8X7X7X8X$X|.|.|.|.|.|.%X7X8X8X8X7X,X$.O.S Y ! :.&.Y S.).$.5 - 0 0 Q ~ W 0 ",
"y ` >.u ! S.3.` !.( t J !.R R '.H.U.| G ^ :./ Z ^ ' 5X8X7X7X7XoX|.|.|.|.|.|..X#X%X8X7X8X,XQ ^ Q A Y $.~ Z 5.~.;.- < A * 4 e.<.6 ",
"J ) ` $ t T.R ,.,.E R H.) I /.!.^.{ R G.1 ] c.N.;.] :X7X7X$X.X.X|.|.|.|.|..XoX@X#X7X7X7Xm.:.} } ' Z A < T q.9XZ O < , Y 3 t T.Y ",
"t R R : ~ 5.E ~ ~ Y G J.,X:X7X:X6X{ t F 1X:X8X:X2Xc.:X7X%XXXXXOXOX|.|.|..X$X=X7X7X%X7X:XV.2X-X:X;X*XM.C [ q.^.C # - A ! , , >.{ ",
"u 0 u , <.Q W A ! Y N.4X7X7X7X7X7Xm.,.,X7X7X8X7X7X>X:X7X$X%X7X7X7X$X.X.X%X8X8X8X7X7X7X:X:X7X7X7X8X8X8X,Xq.^ T.Z O X Q [ ! Y ! ,.",
"! ! 5 Y <.9 0 9 W R 1X7X7X7X7X7X7X:X,X7X7X8X7X8X7X8X8X7X7X7X7X7X7X7X%X$X8X8X7X=X7X7X7X7X=X=X%X7X8X8X8X8X1X' U.R , # W @.>.A.` ` ",
"o.+.; o.W 8 q S e x.7X7X7X7X7X7X7X7X7X8X%X$X#X#X=X=X7X7X7X7X=X=X7X7X8X7X8X#XXXXX$X7X7X$XXX|.|..XXX$X8X8X4Xq.T.` ` 0 3 ! >.&.&._ ",
"w i = i 7 0 ^ [ p v.7X>Xj.@Xj.j.@X7X7X#XXX|.|.|.|.$X8X7X%X#XoXXXoXOX=X7X#X|.|..X#X8X7XOX|.|.|.|. X X%X8X:XC.G.~ ~ 5 3 3.3.u ` ;.",
"> 8 ; 8 ' 3X:X:X>X>X7X@X@Xj.j.7X|.#X$X|.|.|.|.|.|.|.$X=X.X|.|.|.|.|.|.#X.X|.oX%X%X%X%X%XOX|.|..X X|.oX8X:XL.[ 6 u , &.8.&._ ` _ ",
"= > 9  .;X8X8X8X7X7X@X@Xj.@Xh.7X|.|..X|.|.|.|.|.|.OX%X=X#X#XXX|.|.|.|.|..X|..X.X|..X.X#X%XOX|.|.|.|..X%X8XC.G 2 Y u W.+.> Z.=.R ",
"> u F >X7X7Xj.7X7X7X7XXX7Xj.@Xj.|.|.|.|.|.|.|. X#X=X$X#X$X$X$XoX|.|.|.|.|.|.|.|.|.|.|.|.OXOX|.|.|.|.|.%X7X<Xn.c.J ! 3.0 i 3.! u ",
"i ` m.=X7Xj.j.@Xh.7X7X7X@X7X@Xj.|.|.|.|.|.|.|.XXoX.X|.|.|.|.|.oXXX|.|.|..X|.|..X|.|.|.|.|.|..X|.|.OX$X7X7X7X7X7X<XA.0 i -.-.-.y ",
"t >.4X+Xj.@XXXj.j.7Xj.j.j.@Xj.j.|.|.|.|.|.|.|.|.|.|.|.|.|.|.|.|.|.|.|.|.|.|.|.|.|.|.|.|.|.|.|.|.|.|.%X7X$XXXXXOX%X<XJ p -.! @.u ",
"y B.;X|.@Xj.XXXX7X7X@Xj.@Xj.@X7X|.|..X|.|.|.|.|.|.|.|.|.|.|.|.|.|.|..X|.|..X|.|.|.|.|.|.|.|.|.|.|.|.OX7XXX|.|.|.|.OXC.Y i +.u &.",
"( C.@Xj.@Xj.j.@X@Xj.j.7Xh.j.j.j.|.|.|.|.|.|.|.|.|.|.|.|.|.|.|.|.|.|.|.|.|..X|.|.|.|.|.|.|.|.|.|.|.XXXX7XXX|.|.|.|.|.z.) 0 i 5 ! ",
"p v.@X.X.X.X.X.X7Xj.j.7Xh.7X7Xj.|..Xj.|.}.j.j.j.j.|.|.|.|.|.|.|.|.|.|.|.|.|.|.|.|.|.|.|.|.|.|.|.|.|.XX#X|.|.|.|.|.|.h.] w e i , ",
"y v..X.X.XXX.XXXj.j.j.j.j.j.j.@X|.|.|.|.|.j.j.g.g.j.j.|.|.j.j.j.j.j.|.|.|.|.|..X|.|.|.|.j.|.|.|.|.|.|.XX|.|.|.|.|.j.d.I ! e 0 3 ",
"y x..Xj..Xj..Xj.j.7Xj.@Xj.j.j.j.|.|.j.|.j.|.|.g.j.j.j.j.g.g.j.j.j.j.|.|.|.|.|.|.|.|.|.j.j.j.j.|.|.|.|.|.|.|.|.|.j.d.a.E o.W 5 +.",
"y y m.|.|.|.|.|.|.|.|.j.j.j.g.|.j.j.h.j.j.j.j.g.g.g.g.g.g.g.f.j.j.j.|.|.j.j.j.j.}.|.|.|.|.|.j.j.|.|.|.|.|.|.|.h.d.d.U ! ! u ! _ ",
"p Z.K.|.|.|.|.|.|.|.}.g.j.j.j.j.j.g.j.j.j.g.j.f.i.g.g.g.f.i.f.j.j.j.j.g.j.j.j.j.j.|.|.}.j.j.j.j.j.}.|.|.j.}.|.h.i.a.U =._ u _ =.",
"..W.p B m.&X|.|.|.|.|.g.g.j.g.j.j.j.j.j.j.g.g.g.p.i.i.u.u.p.j.j.j.j.j.j.j.g.j.j.}.j.j.j.g.g.j.j.j.j.j.f.f.g.g.g.u.u.i.y.I p _ ` ",
"S.W.5 : Z.] k.j.}.j.j.j.j.j.j.j.j.f.g.g.j.j.g.g.j.p.u.i.h.j.j.j.j.j.j.f.f.j.j.j.j.g.h.g.g.j.j.j.j.g.f.i.h.g.j.g.u.r.r.i.a.) p u ",
"S.S.e e R c.j.j.j.j.j.j.j.j.g.j.h.i.i.f.g.j.j.g.f.u.r.i.g.g.j.j.g.g.p.u.i.g.g.j.j.j.j.f.f.j.g.f.p.i.i.f.j.j.j.p.r.r.r.r.r.l._ p ",
"..6...y : k.h.j.j.j.f.h.j.g.j.g.p.u.m u.i.i.i.i.u.r.u.u.i.p.p.p.i.i.u.r.u.i.f.g.h.f.p.u.i.g.j.f.i.i.u.p.f.f.p.u.r.r.r.r.r.r.) Z.",
"..=...p t a.j.g.j.j.f.i.p.d.p.i.u.r.u.u.r.r.r.r.u.m r.r.r.r.r.u.u.r.r.r.u.m u.u.u.u.r.r.r.p.h.j.h.u.u.u.u.u.r.r.r.r.r.r.r.t.) S.",
"........;.y.g.j.j.g.g.u.r.u.u.r.r.u.m u.r.r.u.r.u.r.r.r.r.u.r.m r.r.r.r.r.r.r.r.r.r.r.r.r.u.i.i.u.u.m u.u.r.r.r.r.r.r.r.r.t.( A.",
"..y i p p B d.j.j.j.j.i.u.r.r.r.r.r.r.r.r.r.r.r.r.r.r.r.r.r.r.u.r.u.r.r.r.r.r.r.u.r.r.r.r.r.r.r.r.u.r.r.r.r.r.r.y.r.r.r.r.V Z._ ",
"p e 5 y y L l.i.s.f.p.r.r.r.r.r.r.r.r.u.r.r.r.r.r.r.r.r.m u.r.r.u.m r.r.r.r.r.r.r.r.r.r.r.r.r.r.r.m r.r.r.r.r.r.x.N.N.x.I t &.S.",
"p > > : t Y.J.r.r.r.r.r.r.r.r.u.r.r.r.u.r.r.r.r.r.r.r.r.u.r.r.r.r.r.r.r.r.u.r.r.r.r.r.r.r.r.r.r.r.r.r.r.r.r.r.r.B _ W.S.u R R (.",
"-.y : y R F.] M r.r.r.r.u.r.r.r.r.r.m r.u.r.r.r.r.r.r.r.r.r.u.r.r.u.u.m m r.r.r.r.r.r.r.r.r.r.r.u.r.r.r.r.u.u.r.b ( W.W.R R u S.",
"~.! 1 F x n r.r.r.r.r.r.r.r.r.r.r.m m r.r.u.r.r.r.r.r.r.r.r.r.r.r.u.u.n n r.r.r.u.r.r.r.r.r.r.m m r.r.u.r.u.m r.c [ S.S.i t Y ! ",
"'.{ % d v u.r.r.r.r.r.r.r.r.n v z f n u.r.r.r.m n r.r.r.r.r.r.r.r.r.r.z n r.r.r.u.r.r.r.r.r.r.c m u.r.r.r.u.u.m f / &.>.R 5 Y 3 ",
"~.A.l d z m r.r.r.r.r.r.r.r.z a a z r.r.r.m n z z r.r.r.r.m n r.r.m v f m r.r.r.r.r.r.r.r.r.z c r.r.r.r.r.r.r.v f k &.! ! 5 2 5 ",
"Z.A.k a a f n r.r.r.r.r.r.m f f a d f z z f a a f m r.r.r.r.v f z f f b r.u.r.r.r.m m n n z f m r.r.u.r.r.r.b f d g ! Y ~ 5 , 6 ",
"u ( H f a a s c n r.r.r.m z s d a a a a a a a a s n r.r.u.r.m b z a f m r.r.r.r.r.n b v f a f n m r.r.r.m c f a a k 5 0 @.5 < < ",
"_ t Y k a s a a d z v c f s a s a a a a a a a a s c r.r.u.u.u.r.v d f b u.r.r.u.r.r.r.m f a f d z v c z f a a d a K W 3 A , - 6 ",
"+ 1 ! [ g a a a a a a s s a a a a a a s a a a a a s v m u.m m v f d a f b m m u.r.r.r.n f d a s a a d a a a a a a H 0 0 Y A < o ",
": 6 G H g a a s a a a a a a a a a a a s s a a a s a s z c c f a a d a a f c b m m m b f a s a a a a a a a a d a a k l   l C H G ",
"3.F d a a d a a a a s s a a a a a a a a a a s s a a a a a d a a a a a a s a s s f f a a a a s a a a a a a a a a a a a a a a j F ",
"C s d d a a a a a a s s a d a a a a a a a s a s a a a a s a a a a a a a s s a a a a a f a s a a a a a a a a d d a a a a a a a g ",
"g d h d a s d d s s s s s s s s a a s s a s s s a s s a a s s s d s f a s s a s a a a s d s s s a a h f d d d d a a d d h h j j ",
"'.: 3.S.6 5 9.<.3 Q D 4 4 Q A A $.< T %.o O q.:.A :.Q 4 S S S 1.%.9 0 S ; A O.4 A - * W Q 6 S Q Q 2 I.t ' H.r r y Y Z.` R 5.T.'.",
"'.Z.R S.1 R :.u 2 <.4 < 4 < %.A $.Z Y A 2 Z ^ ,.^ ,.7.4.$.%.S 7.%.8 Q S O.S 4 $.- 9 4 Q 4 4 $.Q Q < Y I.Z.) r % 1 >.Y.+ ! R >.!.",
"S.>.t 3.1 ;.! 2 Q 6 A A < S $.^ $.A Y Q Z Z ~ $.Q - $.w.O.9 S S S O.o.9 $.S Q O.- 4 9 W Q 4 A 4 - < ^ T.A.J r y t Y.y R Y 5 G A.",
"&.>.0 Y 1 5.6 , Y , ;.;.- 4 $.1.Q @.Y @.T < ~ T Q 6 <.Q S A O.0 %.%.; 9 <.O.%.9 A A A A 7.^ S 4 - W I.T.) 1 $ 1 ` ! * D.3 , Y t ",
"W ;.T , u ,., , 2 Y ! ,.4 . $.w.@.;.A ;.Q 4 Q Z Z :.9.A $.Q 0 O.e.w ; S %.S @.0 %.4.9 4 4.e.$.4 A 7.U.:.6 1 5 2 R X -.3.0 6 ! , ",
", Y Q X :.:.2 2 Y ~ , R ;.0 ! 7.! %.0 Q @.< Y 6 < ~ ;.<.5.o.* %.7.; %.$.- - O.$.%.e.Z - Q [.%.9 S %.O.6 , 2 2 , 3 <.D.3 ;.@.! Y ",
"6 6 Y 2 q.^ E ,.` R ! 2 $.&.3 R.W O.3 S @.6 A 6 A A Q ,.Y ~ ! 9.@.4 7.W * 9 $.O.~ e.Q ; A [.$.4 X.X.D - 3 6 3 , e _.#.= w w @.9 ",
"T D Z ,.,.T ~ G.>.[ 3.y 0 ! > 8.i w ; 9 @.! 5 6 Y Y ~ ~ Q <.<.R.Q Q S ; Q $.@.Q S %.4.6 A q.$.4 D X.9 - 4 , - 4 7.9.8 X.7 9 O.4 ",
"Z Z 6 0Xq.2 1 R G.,.&.t > 5 u 0 W 9 3 5 %.;.6 t 6 Y E &.{.:.0 e.A 1.4 3 w.D 6 O.A Q E.2 A A ^ D 7 D 9 ; 4 - - W _.#.8 w 0.X.; Q "
};
