/* XPM */
static char *Y2JhbGw_[] = {
/* columns rows colors chars-per-pixel */
"64 64 236 2 ",
"   c #010101",
".  c #0A0000",
"X  c #0B0B0B",
"o  c #050705",
"O  c #130101",
"+  c #1C0000",
"@  c #121E0D",
"#  c #171717",
"$  c #260100",
"%  c #330100",
"&  c #3D0001",
"*  c #2C2C2C",
"=  c #242624",
"-  c #343534",
";  c #430001",
":  c #570201",
">  c #6B0000",
",  c #7A0000",
"<  c #740000",
"1  c #513219",
"2  c #723619",
"3  c #733D20",
"4  c #2C4B1D",
"5  c #284519",
"6  c #344A1D",
"7  c #2D531A",
"8  c #2B551B",
"9  c #34541D",
"0  c #36581E",
"q  c #2D4C22",
"w  c #2C4B27",
"e  c #324E24",
"r  c #334D29",
"t  c #3B4F2A",
"y  c #2E5324",
"u  c #2E532A",
"i  c #345424",
"p  c #395525",
"a  c #355A24",
"s  c #3A5A25",
"d  c #35542A",
"f  c #3A552C",
"g  c #355A2B",
"h  c #3C5B2C",
"j  c #374E32",
"k  c #365231",
"l  c #3B5533",
"z  c #3D5B32",
"x  c #3E5639",
"c  c #3D5C39",
"v  c #325831",
"b  c #3C6225",
"n  c #3D622C",
"m  c #34632A",
"M  c #3D6233",
"N  c #3D623A",
"B  c #3D6B36",
"V  c #2E6025",
"C  c #584A29",
"Z  c #415D2D",
"A  c #45542A",
"S  c #425D34",
"D  c #435E3A",
"F  c #45593A",
"G  c #555934",
"H  c #4D4A2A",
"J  c #684728",
"K  c #774627",
"L  c #674E31",
"P  c #42632D",
"I  c #44692E",
"U  c #406426",
"Y  c #436334",
"T  c #496534",
"R  c #446935",
"E  c #4A6C34",
"W  c #45633B",
"Q  c #4A653B",
"!  c #456A3B",
"~  c #4B6B3C",
"^  c #516D3E",
"/  c #53643C",
"(  c #4C7235",
")  c #4B723D",
"_  c #447139",
"`  c #53733D",
"'  c #54793D",
"]  c #55783B",
"[  c #3B6340",
"{  c #494949",
"}  c #4C5D45",
"|  c #595858",
" . c #466441",
".. c #4A6542",
"X. c #4D6B42",
"o. c #476B45",
"O. c #526D43",
"+. c #536E4A",
"@. c #56674A",
"#. c #4D7342",
"$. c #4C774A",
"%. c #537344",
"&. c #597545",
"*. c #547A45",
"=. c #5A7B45",
"-. c #557349",
";. c #5A754C",
":. c #557B4A",
">. c #5B7B4B",
",. c #5B6756",
"<. c #5A7551",
"1. c #5C7C51",
"2. c #557A52",
"3. c #4D7751",
"4. c #627E4D",
"5. c #607647",
"6. c #627D54",
"7. c #657C5A",
"8. c #686C53",
"9. c #616162",
"0. c #6C7965",
"q. c #7B7B7B",
"w. c #757A72",
"e. c #71766F",
"r. c #8C0000",
"t. c #820000",
"y. c #9A1107",
"u. c #A40000",
"i. c #AA0804",
"p. c #B30000",
"a. c #BD0100",
"s. c #B80C04",
"d. c #BE1906",
"f. c #8D2A15",
"g. c #A02F1D",
"h. c #9A3826",
"j. c #8A3725",
"k. c #B7362E",
"l. c #C40001",
"z. c #CB0000",
"x. c #D30000",
"c. c #DB0100",
"v. c #E40000",
"b. c #EB0000",
"n. c #E30C0A",
"m. c #F30100",
"M. c #FE0000",
"N. c #FE0B0A",
"B. c #F20E0D",
"V. c #FF1515",
"C. c #FF1C1D",
"Z. c #F01312",
"A. c #FE1F20",
"S. c #CA332E",
"D. c #FE2828",
"F. c #E93737",
"G. c #FE3C3C",
"H. c #FC3636",
"J. c #83452C",
"K. c #FC403F",
"L. c #FF4444",
"P. c #FE4B4C",
"I. c #FE5454",
"U. c #FF5C5C",
"Y. c #F65050",
"T. c #FF5050",
"R. c #FE605F",
"E. c #FF6464",
"W. c #FF6C6C",
"Q. c #FE7473",
"!. c #FF7C7C",
"~. c #FE7777",
"^. c #FE706F",
"/. c #5C824D",
"(. c #598146",
"). c #5D8352",
"_. c #5F8258",
"`. c #63834C",
"'. c #63894B",
"]. c #638749",
"[. c #638454",
"{. c #648B55",
"}. c #6A8C54",
"|. c #658459",
" X c #6A865B",
".X c #648B5A",
"XX c #6B8C5C",
"oX c #698752",
"OX c #6D925C",
"+X c #669159",
"@X c #72935F",
"#X c #72985D",
"$X c #708B5E",
"%X c #6A8D61",
"&X c #6E9663",
"*X c #729362",
"=X c #769C63",
"-X c #789968",
";X c #7D837C",
":X c #708B6A",
">X c #819473",
",X c #83A46B",
"<X c #FE807E",
"1X c #838483",
"2X c #8A8B8A",
"3X c #868A86",
"4X c #939393",
"5X c #9D9D9C",
"6X c #979994",
"7X c #90928E",
"8X c #A0A59E",
"9X c #ACACAC",
"0X c #A5A4A5",
"qX c #B3B3B3",
"wX c #BBBBBB",
"eX c #B0B2AF",
"rX c #FE8484",
"tX c #FF8D8C",
"yX c #FD8A87",
"uX c #FE9494",
"iX c #FF9899",
"pX c #FE908F",
"aX c #C3C3C3",
"sX c #CDCCCC",
"dX c #D2D3D2",
"fX c #DDDDDD",
"gX c #D7D9D6",
"hX c #D0D0CE",
"jX c #E0E0DE",
"kX c #E5E5E6",
"lX c #ECECEC",
"zX c #E9E7E8",
"xX c #F4F4F4",
"cX c #FEFEFE",
"vX c #F6F6F8",
"bX c #F1F1EF",
/* pixels */
"U a @XXX! W d Y z *.4.%.p f F x j l r F S  XW a Y n /.*X%.Q &.-.O.F D ;.! f Q O.d h {.` >.h h Y P q f w f v q 1.%Xw c l Q W +.} ",
"U E =X/.Y g h ~ >.%.=.E S e D x l j r l S  X#.T ) %.XX.XW z O.;...c ..S W r O.Y T i %.f ^ /.`.Y ~ %Xg 5 z W W ;.+.v k d ! ..+.;.",
"] OX$XY h z X.>.%.h ^ ^ T i l f S F r l l |.-.~ *.)..X%.f i W O.l D O.l W f -.S Q i O.s P =.=X`.T ).1.z z :.f 1.Q ! d r z o.z 2.",
"`.-X) i N ~ -.%.h 9 P E T S S D F F S Z Z ;.W Y :.:.Q h z z S ..f W Y Q Q ~ O.f ^ Z ~ E Y P  X-X%.f |.).d >.f -.D W W d D W z %.",
">.OXi z W #.z z T s Z Y T -.Q O.O.O.D S h ^ M z ;.-.z z X.W S X.S Y l %.;.+.^ Q &.Q Z Y &.P ^ @X*X%.T 4.Z ~ ~ W M f %.z ! z ! ! ",
".X+Xg W z ! W ! ^ E I U =.oXY h ;.@.^ l f W S z #.~ W  .-. .x X.O.h S W %XQ %.O.^ %.Z Z =.T P =.4.4.Z T S ^ Z ~ ~ N >.! #.N X.! ",
"OX:.M g v W 1.-.Y E ] U =X`.i f &.O.^ Z f Y Y Y ! Q W ..o. .c W O.z h Q  XP ~ ;.Q -.Y T O.T T / Z ^ ^ Z T ^ s ~ /.%.:.! $.B M #.",
"-.i M u c ! 1.n i U }.0 ,X=.h ` ^ E O.S S S z l  .! D D ..o. .l ! Y f ;.).Y h ;.&.^ Z O.&.^ ^ Z T T 6 ^ / s =.f >./.~ M :.#.g ).",
"! m g u N 2.o.i h '.( ( ,X( Z E / ( A 6 Y E Z d l W W l o.c ! c d T M -X%.Y T Y T E Q Q ~ ^ ^ ~ G I Z s Y ` ^ P R {.M #.! *.! /.",
"! g q g :.2.h g a ].U (.}.].P P I A 0 s Q ~ Z e s D z v W W W N %.i :.-Xh P ~ Y T S Z T ^ O.^ Q I T Z A Z %.` Y Y >.R *.#.) ! ).",
"R g y ! %X$.q M n ' U ] ] E P s P 0 0 Z T T S Z d Z f f c ..W W =.0 =X*XY ) Y Y Z Z f Y / / Q / / ~ T Z T %.*.E h *.X.~ ! R #./.",
"n y Y :._.W y _ ) n I E E 9 Y P 0 0 T / Z P / P t S f e A L 3 3 3 3 8.G T %.P ` P p Z S S S Q &.` ` ^ T T &.>.Q s %.*.f h M #.$.",
"y a >._.! g v ~ (.b b U E U ` n 9 E ].] A T ^ S f J f.S.S.Z.N.m.M.m.b.c.d.h.J ^ ^ Z e f A S Q O.Q Q ` ~ Y :.[.W n Q %.i f i ! Q ",
"8 m {.).y g ! ) /.( 0 b P =.R i E ].].T 0 T / K S.F.K.L.L.H.A.N.N.M.M.M.m.v.c.s.J.H 6 e S Q Q Q T T %.` T >.oX~ Y p W z W d f N ",
"0 B ).) g ) *.! }.' 0 b ` (.P T ].}.5.U A J S.F.T.U.U.E.U.T.H.V.N.M.M.M.M.b.v.c.c.s.2 6 S ^ / T Y T -.` Y 1.%X%.h q z z Q Q Y z ",
"V ) *.M ! ).:.( +X( b I }.R R =X'.'.] A h.F.I.W.Q.~.Q.W.W.E.G.C.N.N.M.M.M.m.b.v.c.c.z.y.H F O.Q Y z -.~ P >.$X%.i d z w h [.;.s ",
"U ) ) 9 n .XE =.=.( I '.( n #X'.#X' A k.U.W.!.rXrX<X!.Q.Q.E.L.A.N.N.M.M.M.m.m.v.c.c.c.x.i.L #...S r Q e I 5.,XZ 4 p q Y f n }.Y ",
"n I R 9 ~ >.T ) Q T Y =.( ( #X'.}.G S.R.!.rXyXpXtXrX!.~.^.R.G.V.N.M.M.M.M.M.M.b.v.v.x.x.z.s.1 g c e h A ` 5.=XA p 9 N T i i *.' ",
"M M Y d -.~ Y S Y T ! ~ ) ' (.) A k.E.<XyXpXuXuXyXyXrX~.W.P.D.N.M.M.M.M.M.M.M.M.m.v.c.x.x.z.p.C S l e f 4.` }.U 6 4 Q #.T I R (.",
"! ! f N -.z z l W S ..W ! #.M Y k.R.<XpXuXiXuXuXtXyXrX~.U.H.V.N.M.M.M.M.M.M.M.M.m.b.c.c.x.z.l.i.G +.e f 5.^ oXY 9 i R #.:.>.) ) ",
" . .u  .c k x D x d D z D ! v K Y.!.pXiXiXiXiXuXuXrX!.E.G.C.N.M.M.M.M.M.M.M.M.M.M.b.v.c.c.z.z.l.f.@.S f &.=.}.` ) z i o.:.) ) ) ",
"c [ w [ k l } } x j F x x x H F.W.rXuXuXiXiXiXuXtXrXE.L.D.N.M.M.M.M.M.M.M.M.M.M.M.m.b.c.x.x.z.z.p.3 W h ~ ]./.E ~ g g :.:.N ) #.",
"u v u k k c  .c F k x v l z h.P.Q.rXpXuXuXuXuXuXrXE.L.C.N.M.M.M.M.M.M.M.M.M.M.M.M.M.b.v.c.z.l.l.l.y.F Q E /.` h h i #.2.#._ ) ) ",
"w w c w x } ..k j j j j x H F.U.Q.rXyXpXuXuXpXrXE.G.V.N.M.M.M.M.M.M.M.M.M.M.M.M.M.M.m.v.c.x.z.l.l.a.L -.E >.P s R N .Xo.u ).$.R ",
"u v y z l W W D ....A w t j.P.E.Q.!.rXtXpXtXrXW.G.V.N.M.M.M.M.M.M.M.M.M.M.M.M.M.M.M.m.v.c.x.z.l.l.l.y.~ -.) I f n ! :.N N $.B B ",
"M #.R N d -.O.O.X...F f f k.I.E.^.!.rXyXyXrX^.K.V.M.M.M.M.M.M.M.M.M.M.M.M.M.M.M.M.m.b.v.c.x.l.l.l.l.p.A ` E n a N #.z N #.#.#.g ",
"m *.(.M g ).-.-.O.Q Q W C F.U.E.^.!.!.!.<XQ.P.A.M.M.M.M.M.M.M.M.M.M.M.M.M.M.M.M.M.m.b.v.x.z.l.l.l.l.a.2 Y I P s z ! d [ $.! #.M ",
"m #._.*.M ).! ~ O.Y Q X.K G.U.E.W.Q.Q.Q.W.I.D.N.M.M.M.M.M.M.M.M.M.M.M.M.M.M.M.M.m.b.v.c.x.z.z.l.l.l.l.f.Z Y U f f h o.W W o.v #.",
"_ ' +X+XB (.v ! X.g Y X.h.H.I.E.W.W.W.E.T.D.N.M.M.M.M.M.M.M.M.M.M.M.M.M.M.M.M.M.m.b.v.c.x.z.l.l.l.l.l.y.A A U s d N %.N v W g o.",
"B B (.+X(.[ m )...i W W g.D.L.U.R.E.U.P.D.V.M.M.M.M.M.M.M.M.M.M.M.M.M.M.M.M.M.m.b.v.v.c.z.l.l.l.l.l.l.i.6 p p p S +.c c c g z u ",
"m V B +X{.B [ &X! y W c 1 c.D.G.L.L.G.D.V.M.M.M.M.M.M.M.M.M.M.M.M.M.M.m.M.m.b.v.v.x.x.z.l.l.l.l.l.l.l.y.6 6 i p ~ O.d c o.v z f ",
"m m B &X+XB ) &XM u o.z @ : n.C.C.C.V.N.M.M.M.M.M.M.M.M.M.M.M.M.M.M.m.b.b.v.c.x.z.l.l.l.l.l.l.l.l.l.p.% 4 6 p P -.z W c W W g ! ",
"V m +X+X=Xn #.).f Q / D @   & a.N.M.M.M.M.M.M.M.M.M.M.M.M.M.v.a.u.u.p.x.c.x.x.z.l.l.l.l.l.l.l.l.l.u.%   5 e 4 ;.^ h z ! ! M ! ! ",
"B $.).B +X_ _ =.i c S S =     O < x.M.M.M.M.M.M.M.M.M.M.v.t.% .   . O & r.l.l.l.l.l.l.l.l.l.l.a., +   o 4 W Z ^ Y z R #.! B _ $.",
"[ +X[ 8 /.' n *.d W D S >X9.      + > l.m.M.M.M.M.M.M.x.&       o o   o . > l.l.l.l.l.l.l.a.r.&     o - e ~ ! ~ h h ! ~ ! B #.#.",
")._.m y (._ i ) Y M d l 1XzX7X=       O ; r.z.m.M.M.b.;   . { 2X0X4X| #   . , l.z.l.a.u.< % .     # q.4XN T z Y h h M ! W ! B B ",
"_.3.v m R B a ! Y X.O.;.9.lXcXfX1X* o       O ; , p.t.    q.aXqXqX9X5X4X*   + r., : % O       X { 0XdXq.~ ~ h i g g M W M ! ! ! ",
"[ 3.[ v i g Y B W ..;. X<.hXcXcXcXkX9X9.= o       . .   { aXwXxXvXzXaX4Xq.X               # | 0XsXgXaX@.M Q T Y i i M B m g #.(.",
").[ $.B g g W #.Y h q Q  X8XcXcXcXcXcXcXkXwX1X{ = X     4XqXvXcXcXvXfXwX2X=       # * 9.4XwXhXdXsXdX0XW g i T $.Q n M M g g ! /.",
"[ [ [ [ $.a N .Xh W l l T 0.lXcXcXcXcXcXcXcXcXvXkXwX=   2X9XvXcXcXvXgXaX2X=   | eXsXjXlXzXgXhXhXdXsXw.-.Y 4 q n *X#.m m M M #.$.",
"[ v B B ! y &X-.q Q h f S f eXcXcXcXcXcXcXcXcXcXcXcX|   { qXwXlXlXjXsX5Xq.X o qXcXcXvXlXkXdXhXhXdXqXj |.g y y g :..X:.n m g :._ ",
"[ V v V n ! -X*.N ..W S f p 8.lXcXcXcXcXcXcXcXcXcXcX4X  o w.9X0X9X0X4X1X*   * zXcXvXvXxXzXgXdXhXsX;Xe XXh g ! #.! %._.#.W M #._.",
"N v u y n /.&X) y h %.-.Q Y s 6XcXcXcXcXcXcXcXcXcXcXlX{     { 2X2X1X9.=   X 0XcXcXcXvXbXkXdXhXdX8X7.s %XY a #./.y _ +X.XY ! R +X",
"[ m a m _ #X/.M N d X.-.~ / P F aXcXcXcXcXcXcXcXcXcXcXgX{       X o     X 1XvXcXcXvXvXlXjXdXdXwX@.*XM  XY g *.#.y #..X.XY M M |.",
"+X_ V I =.#X( R >.h ..-.O.^ Y T @.gXcXcXcXcXcXcXcXcXcXcXkX1X* X o o # { qXcXcXcXcXxXbXkXgXdXaXe.f $XQ [.M ! :.! R )././.B n Y ! ",
"-X' b ( (.'.I ( *.h M O.%.~ Z P =.0.fXcXcXcXcXcXcXcXcXcXcXcXlXaXeXqXdXvXcXcXcXcXvXlXzXfXdXaXq./ Z 6.~ %.h #.) M :.{.$.$.Y g Y d ",
"#X*.I ] '.' b ( -.M 4 g T z Q =.}.].,.dXcXcXcXcXcXcXcXcXcXcXcXcXcXcXcXcXcXcXcXvXbXzXjXgXaXw.5.Z s ~ Q ~ g ) B B ).$.#.! ! g h d ",
"(.(.( ' }.( 0 Y ~ Y q W ;.Y ^ `.^ ` 5 } wXvXcXcXcXcXcXcXcXcXcXcXcXcXcXcXcXcXvXbXkXjXdXeX,.4.`.p f h T Q h *.! )./.M #.M ~ h i h ",
"I ) ) *.).z Y z -.z z -.Y ..-.;.D f f t O.2XjXcXcXcXcXcXcXcXcXcXcXcXcXcXcXvXbXkXjXsX7X@.^ oXE p f D e T A E =.>.` -.g z ..h d p ",
"~ n Y >.#.i z l  .z W ..z ~ %.O.@.Q F f &.Q ,.5XfXcXcXcXcXcXcXcXcXcXcXcXvXlXjXsX6X,.^ T &.4.I A f S f A 0 ` ] &.W >.W h z i p s ",
"8 a ! >.v d c i l N Q Y S W ~ Q O.<.S f O./ T Z } 1XqXfXbXvXcXvXvXxXlXjXhXeX1X,./ E &.P `.4.E E S Z p p U ] ] ] h ) Y z T z i 5 ",
"y h M ~ f Y N z l z ~ l S f T D F X.t S Q @.S p f Z f F 9.e.;X3X3Xq.e.0.7.O.Y T ^ T O.s 4.` T T O.D 6 0 U ( (.(.) ~ d 5 g T T U ",
"=.! y m z B z W z l D f D f S T Z D 6 S T ;./ p f p p f f f f k f Q S Y 6.|.Q p ~ T Q p >.Z i p / O.9 p P ( ].I =.>.>.$.R h h I ",
"B *.:.v y X.! W S S S f S p l / S f e T Z ^ %.S p p e e f f t l W O.W l O.O.h f S s S Z %.S f Z f &.E i E ] ].8 n ) +X-X*X`.R U ",
"n _ &X#.y ! >.! h W f Z S S Z D Q t Z ^ e Z 5.~ t S f e l f l Q +.S l W S f f S S e e Y ~ Y T / s T 4.s ( ].] 8 8 a ' /.{.=X#X#X",
"-Xy /./.g g >.-.i Q l t f / Z F ^ t S O.5 9 4.&.Z &./ f D S F <.-.l S S r S ..f S e q Q W z T Q O.p `.U ( ].b b b B /.) Y 4.}.=X",
"=X:.R [.a R :.Y f -.f f f f &.S O.h T Y p Z ^ =.^ =.<.;.X.+.F ;.X.k D F X.D f O.e l l W l f ~ Q Q p P '.].( b b V ' {.8 ! R =.}.",
").*.n :.a #.Q i E h Y h e T @.Q ^ D D T h Z ~ O.Q e O.6...z D D D ..Q c X.D W X.e f l T ~ f D h r i ^ }.] I b V n {.g Y R a U /.",
"#.:.M Y a >.h i Y i %.%.e d O.;.Q ^ Y ~ T f ~ T Q f -.Q D l ..c @.X.d k -...+.x l Y l F >...D d e Q [. X( b 0 a ) ! 8 [.d y Y n ",
"W %.T 7 Y >.i 9 f Y E >.h 5 O.1...%.Y -.~ f T Z Z =.1.Y O.~ S ..7.c f D X.W X.l -.;.z f ;.|.^ l F ;. X%.h a h a ! 4 #.3.z n Q i ",
"i Y Q 6 &.&.s s R ! i R -.h ! 1.Q %.z ..~ g Y h f X.%.-.;.! q -.<.d +.O.e e X.O.%.7.h e Q :XO.l D +...f i s h a i 2.1.k %.X.W Y ",
"h s I f 4.^ ~ =.) T E g X.#.d _.W o.d c ..h z f S n Q =.Y ~ ! <...d <.D q l O.....6.Q i S -XO.f D ..S e d h a q v :Xo.r x c X.l ",
"T Z s >.=.T ) `.%.` :.n v W u 2.D x r g #.Q h h Y Y ~ ~ ~ -.-.|.Q Q W r Q ....Q Q O.;.h S >.O.f x } l r f d q f <.<.k [ k l ..f ",
"Z Z Z >X4.s 0 R `.=.) n g g B z  .v i f -.-.h P h Y E ) -X=.l |.S ;.f d 6.S f O.D Q  Xs S D ~ c j F j t f r i  .:X..k x <...r Q "
};
