/* XPM */
static char *Y2hlZXNl[] = {
/* columns rows colors chars-per-pixel */
"64 64 215 2 ",
"   c #2A4716",
".  c #244519",
"X  c #2C4B1C",
"o  c #2B4618",
"O  c #324D1D",
"+  c #2D531A",
"@  c #2B551B",
"#  c #34541E",
"$  c #34581C",
"%  c #395B1E",
"&  c #2D4C22",
"*  c #2C4D29",
"=  c #2D4720",
"-  c #324E24",
";  c #334D2A",
":  c #2E5324",
">  c #2E532A",
",  c #345324",
"<  c #395525",
"1  c #355A24",
"2  c #3A5A25",
"3  c #35542A",
"4  c #3A552C",
"5  c #355A2B",
"6  c #3C5B2C",
"7  c #364D31",
"8  c #384F32",
"9  c #365231",
"0  c #3B5533",
"q  c #3D5B32",
"w  c #3E5639",
"e  c #3D5C39",
"r  c #325831",
"t  c #2E6025",
"y  c #3C6225",
"u  c #33642C",
"i  c #3D622C",
"p  c #376122",
"a  c #3D6333",
"s  c #3D6C34",
"d  c #3D623A",
"f  c #3F683C",
"g  c #7C6B19",
"h  c #485E20",
"j  c #40562F",
"k  c #415D2D",
"l  c #575D28",
"z  c #425D34",
"x  c #4A5D33",
"c  c #435E3A",
"v  c #415538",
"b  c #42632D",
"n  c #44692E",
"m  c #406426",
"M  c #5E632D",
"N  c #446334",
"B  c #496535",
"V  c #446935",
"C  c #4A6B35",
"Z  c #45643B",
"A  c #4A653B",
"S  c #456A3B",
"D  c #4B6B3C",
"F  c #516D3D",
"G  c #546637",
"H  c #427136",
"J  c #4C7336",
"K  c #4C713C",
"L  c #47713F",
"P  c #507437",
"I  c #517837",
"U  c #52723E",
"Y  c #53793D",
"T  c #597D3F",
"R  c #5E7237",
"E  c #63642A",
"W  c #746C2A",
"Q  c #7A6D27",
"!  c #6B702E",
"~  c #7C7029",
"^  c #71702D",
"/  c #626A34",
"(  c #6B7239",
")  c #727436",
"_  c #7D7F3E",
"`  c #3B6340",
"'  c #485F43",
"]  c #456441",
"[  c #4A6642",
"{  c #456C43",
"}  c #4D6B42",
"|  c #496948",
" . c #526D43",
".. c #536E49",
"X. c #4D7242",
"o. c #4F7947",
"O. c #4E7A4C",
"+. c #49734A",
"@. c #537344",
"#. c #597545",
"$. c #557A44",
"%. c #5A7B45",
"&. c #557249",
"*. c #55744A",
"=. c #59754B",
"-. c #57794A",
";. c #557B4A",
":. c #5B7B49",
">. c #5B794E",
",. c #5E7F4D",
"<. c #5B7B4B",
"1. c #4D7751",
"2. c #597651",
"3. c #557C52",
"4. c #5C7C52",
"5. c #567152",
"6. c #627E4D",
"7. c #657A45",
"8. c #777D44",
"9. c #617D53",
"0. c #667E56",
"q. c #9B7D1C",
"w. c #977B14",
"e. c #81712A",
"r. c #867828",
"t. c #917720",
"y. c #927D2A",
"u. c #977E25",
"i. c #847530",
"p. c #5B8246",
"a. c #5C824C",
"s. c #518147",
"d. c #5D8352",
"f. c #5F8258",
"g. c #618246",
"h. c #618847",
"j. c #62834D",
"k. c #68824C",
"l. c #638A4B",
"z. c #688A4E",
"x. c #7B8242",
"c. c #70814D",
"v. c #638354",
"b. c #698653",
"n. c #648B55",
"m. c #6A8C54",
"M. c #658359",
"N. c #6A865A",
"B. c #658A5A",
"V. c #6C8C5C",
"C. c #6A9056",
"Z. c #65925B",
"A. c #6D925C",
"S. c #72935F",
"D. c #739A5E",
"F. c #678B60",
"G. c #6D8D62",
"H. c #708B6A",
"J. c #6E9463",
"K. c #6D9964",
"L. c #729362",
"P. c #769B64",
"I. c #799C66",
"U. c #75926A",
"Y. c #759B6A",
"T. c #7B9C6A",
"R. c #799660",
"E. c #9C811C",
"W. c #B68D0D",
"Q. c #B98D0B",
"!. c #B88C07",
"~. c #BD900C",
"^. c #AE891E",
"/. c #AC8716",
"(. c #B38B14",
"). c #B58D1B",
"_. c #BD9111",
"`. c #BB921A",
"'. c #99832C",
"]. c #928233",
"[. c #9F8731",
"{. c #978E3F",
"}. c #9F8838",
"|. c #A48624",
" X c #A2892B",
".X c #A98C26",
"XX c #B6932B",
"oX c #AA8D31",
"OX c #B69430",
"+X c #C69602",
"@X c #C99700",
"#X c #C79802",
"$X c #CC9A01",
"%X c #C2940B",
"&X c #CA9B0B",
"*X c #D39E00",
"=X c #D19F0A",
"-X c #C69818",
";X c #D6A201",
":X c #DAA401",
">X c #DEA800",
",X c #D5A20B",
"<X c #E0A701",
"1X c #E4AB00",
"2X c #E8AF00",
"3X c #ECB200",
"4X c #F2B600",
"5X c #F6B900",
"6X c #FBBD00",
"7X c #FFC000",
"8X c #958D45",
"9X c #849257",
"0X c #819D6A",
"qX c #829D70",
"wX c #83A46B",
/* pixels */
"m 1 S.V.S Z 3 N 6 -.6.U < 4 c w 7 0 ; v x N.Z 1 V i a.A.@.Z #.&...c c =.Z 0 A F 4 6 b.@.%.6 6 B 6 : 5 & 3 3 , 4.M.* q r [ c ..[ ",
"m C I.a.N 5 6 D :.@.%.D z - c w 0 v ; 0 z N.@.V D *.V.B.B q  .=.[ z [ z Z ; ..N N , @.6 U :.j.N D F.q . e Z e =.*.0 9 3 Z  ...5.",
"U A.V.N 6 q } >.@.i D K B - 0 4 v v ; 0 q M.@.D $.v.B.@.4 3 Z ..0 c  .4 Z 4 &.j D , F 5 b :.I.a.N 9.4.5 5 4.4 4.S Z 0 , c S e =.",
"j.I.K , d }  .$.6 # b G B z z c c x 0 z q =.Z N *.>.D 5 q 6 z A 4 Z c A Z }  .6 F 6 D C N N b.I.@.5 N.v.3 >.4 *.Z Z Z 3 z Z e X.",
"a.A., 6 Z X.d 6 C 2 6 b B #.D  . . .x z 6 } q 6 ;.@.q q [ Z e } q x z  .=.#. .A *.D k B %.k F S.L. .x ,.6 D D Z N 5 @.q S d S { ",
"B.V.5 d q A Z Z F D n y %.b.z 6 =.&.[ j 4 Z N q X.[ Z { =.] w } } q q Z G.Z @. .} #.6 k %.B N #.b.6.N N N F 6 D D d <.S @.q S S ",
"A.;.a q r Z 3.$.b C T k P.j., 4 #. . .q 5 N z Z S A Z ] } ] e Z  .q 6 S N.i D =.B #.B N  .B C D k G F b N F 2 F :.#.;.S -.s d X.",
"$.: d : d Z v.6 , m m.% wXT 6 @.D D F x 6 x q q [ Z Z c ] | ] 0 S N 4 =.d.B 6 =.=.F 6 @.#.G F k x B < G G 2 :.5 :.a.S a -.L 5 d.",
"S 5 3 > Z 3.D : 6 l.J P wXP k D G C 2 O N D z < 0 Z Z q | c { e 4 V N T.@.N B N N A B A D  .F G x b k k B @.U b S n.a X.S @.K s.",
"S 5 : 5 *.3.5 5 1 h.m T C.6.b m b k < 2 A D 6 , 4 e q 0 Z Z Z d @., #.Y.6 b C N N N j B  . .F A B B k < k F @.N N :.V ;.X.L S d.",
"V 5 : f F.O.: N i Y m T T C k 2 b # < b B B x j , z 4 4 q { Z a $.1 L.L.N K B N k 6 6 B A G A F G G B b b #.#.N 6 $.} C D S X.d.",
"u 1 V ;.f.Z & L K m n C C + N b 2 % B C k b B B - z 4 5 q X.a S V K I.$.U -.i K N 2 j k x j A #.@.P F B B #.<.D 1 #.;.3 5 q X.$.",
", 1 a.f.Z 5 5 L a.y y m n i P b $ n g.R k B F z j B x a N -.N K C a.C.p V Y @.#.U k < 4 j z A  .A D F D B -.j.S z Z @., 4 , Z S ",
"@ 1 f.d.: 5 { C a.J $ y n %.V , C p.k.C # B #. .A B D B D a.V V Y p.m.C V @.b.D b.B O O x A [ A B C @.U N :.v.D N < Z a V 3 4 N ",
"$ s d.K 5 X.$.C z.Y $ y P p.i N l.m.( 2 h A U R F B #.N Y p.C H I s.a.J $.a.j.D V.F < - z  . .x N Z @.@.V 4.G.@.5 - e 6 A A Z q ",
"p K $.s S d.;.K C.H y C C.V V I.z.m.J b F #.D N F N %.B $.a.C H I p.H 2 g.v.C ,.N.=.N < j Z G A N N  .D k <.G.@., , z & 4 M.@.6 ",
"i J K $ i V.V :.:.C n l.J i D.C.C.Y n j.2 N C D @.N C a o.n.V a K a.@.C %.} B <.v.#.#.4 N @.@.} z 4 Z - B 7.T.k X < : N 5 b B.b ",
"i V V # D :.V D C B B %.J I D.a.C.J i 1 U C K D X.V D V *.d.Z V C C h.m.) _.%X].c.@.} q @.$.N r 0 ; j j U 7.R.k # , z S , , $.U ",
"a a a , *.A N z Z N C D K Y $.K N K @.2 A.@.C a D a N N X.;.z Z V s a.A.].1X5X>X`.y.7.A :.N 1 V z 0 - 6 7.U m.k # X D K V V C :.",
"S Z q d &.q z 4 Z c [ Z S X.s C i @.V i @.v.@.S V 3 0 q S D 4 V N C D ;.8X1X7X7X5X1X-X'.8.5 6 <.....- < =.P z.C , , N } -.:.K K ",
"] | ; ] Z 9 w c w 3 c q Z A 5 $.a i X 6 N L.v.q N 4 4 z A x 6 G ~ ].! ! oX3X7X7X7X7X6X1X-Xq.! <.&.9.q 4 U %.b.K K 6 3 S -.K K K ",
"e e * ` 9 9 ' ' w 7 w w w e 3 } a : 5 d V M.U.A j 4 3 4 z z W ^.:X>X&X*X1X7X7X7X7X7X7X7X6X2X&X XW ..A 6 P j.j.C D 5 5 ;.;.a K o.",
"> r > 9 7 ' ' e w 0 w 0 0 w q e { 5 a 5 , [ U.G.; j ; 4 E q.&X4X5X*X*X3X7X7X7X6X7X7X7X6X6X3X>X+X!.z  .A B a.P k a , o.3.{ S L L ",
"> * r * w ' | 9 7 7 7 9 0 Z { q S q e q r } M.M.; z l t.%X2X6X7X3X+X@X>X7X7X7X7X6X4X1X:X*X;X1X3X%Xv 9.@.D :.b 5 V a F.{ > a.$.V ",
"> q : q r Z [ c [ [ v X 3 z =.e &.5 *.] , A =.9.x e.(.1X6X7X7X7X6X;X*X4X6X5X2X:X*X:X<X4X6X6X7X6X%Xe Z @.#.K V 1 q S 3.d d ;.s s ",
"a L f a 4 @. . .[ [ x 4 6 4  .Z } d ] 3.5 z 2.8./.;X4X7X7X6X7X7X6X5X1X1X;X*X>X3X5X5X3X3X6X7X7X5X~.x D U K D m < d X.5 d X.{ X.5 ",
"i o.;.s 5 d.*.*. .Z [ c N 3 D D Z | r M.q l }.&X3X7X7X7X7X6X3X1X;X*X:X1X4X4X4X7X5X*X$X@X:X7X7X5X~.Z  .D B N b < 6 Z 4 Z +.S X.d ",
"u X.n.K N d.S D @.z A  . ., N D { *.5 0.r.%X1X6X7X6X5X1X:X*X:X1X4X6X6X7X5X$X@X5X1X$X;X;X@X3X7X5X_. . .C b b b 2 5 q | f Z { 5 X.",
"H I Z.Z.K $.5 D } 5 N X.@.q b S { &.~ ).>X5X5X3X>X;X;X>X3X5X6X7X7X7X7X7X5X$X@X5X1X$X;X;X$X3X7X5X`.&. .x k k k 2 4 d +.d e d 5 { ",
"s s s.Z.s.L 5 d.S , Z S @.a a V ) |.$X<X<X;X;X:X1X5X6X7X7X6X7X6X7X7X6X7X6X5X5X6X5X*X$X+X:X6X7X3X). .A k < % < < z ..z e q r q 3 ",
"u t s Z.a.H S F.Z : Z Z { Z / '.!.+X*X:X1X4X6X7X7X7X7X7X7X7X6X6X1X;X:X3X7X7X6X7X7X5X3X3X6X7X4X%Xe.A B z < O , < D  .4 e ] r e 5 ",
"u u s K.d.L { J.d , [ Z Z S (.$X<X4X5X6X7X4X3X3X6X7X7X7X7X7X7X>X+X*X$X+X3X7X7X7X7X7X7X7X7X6X+XW z j z B k O , N #.q N e Z S 3 S ",
"t u Z.d.K.i K v.q S [ } x - (.4X7X7X7X6X:X$X$X$X*X3X7X7X7X7X5X$X;X;X:X*X*X7X7X7X7X6X7X7X7X1Xw.p V Z , D 6 ,   <.F 5 q S S a S S ",
"d s.d.s Z.C K s., z j Z Z x (.5X7X7X7X>X$X;X;X;X$X$X5X7X7X7X3X$X:X;X;X*X$X6X7X7X7X7X7X7X7X3X[.i $.;.S a , D k D N q V X.S s { O.",
"` Z.H : p.Y i $.3 Z x z 4 < W.5X7X7X5X$X*X;X;X;X:X$X1X7X7X7X6X$X$X;X;X$X:X7X7X6X7X7X7X7X7X6X,X'.R o.d.D 3 D Z D z 6 V D s S L X.",
"s.f.u : s.X.: X.q N < 4 j < Q.5X7X7X3X$X;X;X;X;X;X$X>X7X7X7X7X3X*X$X$X;X5X7X7X7X7X7X7X7X7X7X6X:X|.a <.;.N C z N 6 6 a S Z S s s ",
"f.f.u r H V 1 Z N }  .=.x O Q.4X7X7X5X$X*X:X;X;X:X$X1X7X7X7X7X7X7X3X5X7X7X7X7X7X6X7X6X7X7X6X6X4XXXa S D X.S 5 , , 5 a S a S S S ",
"1.` ` u : 5 a V Z } =.F.9.k %X5X7X7X7X1X@X;X;X;X$X*X6X3X3X6X7X7X7X7X7X7X7X7X6X5X6X6X7X7X7X6X5X1XOX;.i d N D Z V , , a s u i L ;.",
"1.` ` ` 5 5 Z X.z 4 = A G.0X`.6X7X7X7X6X1X$X$X$X:X5X1X#X+X>X7X6X7X7X7X7X7X3X_._.<X6X5X2X:X&X^.y.x.v.q S 3 , V $.D a a a 5 5 L a.",
"` ` O.` o.5 a B.0 Z z 0 A 6.XX1X6X7X7X7X7X5X4X6X6X7X;X$X;X*X7X7X7X7X7X7X5X`.M G u.%X).u.W R A * } d., $.N X X q J.D q u i a L o.",
"` u d S s : Y.$.& [ q 4 z k _ XX3X7X7X7X6X7X7X7X7X7X1X$X+X1X6X7X7X6X5X1X;Xu.N c x ( G c 0 } q = B M.& b.5 , , 5 ;.B.;.i 5 5 ;.X.",
"d > 5 u 6 V Y.o.z } Z q < < D ].>X7X7X7X7X7X7X7X7X7X7X4X4X6X5X2X:X&X(.}.~ G x A e D Z e z Z 4 - Z v.: B.6 , S $.S ;.n.X.a a X.d.",
"d > : : i d.A.K & 5 &.;.S N q.@X5X7X7X7X7X7X7X7X7X6X5X1X:X&X(.u.~ E =.@.q k x F z Z z 4 c j 4 0 S L.< J.a 5 X.3., S Z.B.V V S Z.",
"+.u : u V D.a.N Z , } *.A F %X5X7X7X7X7X7X6X5X3X>X-X)./.e.E x c Z S f.Z z q 6 Z B N z - B 4 z [ Z L.N B.a 5 o.$.: L B.B.V a d v.",
"Z.C 1 H $.D.J V ;.6 } &. .@.%X6X7X7X5X3X>X$X(.E.r.9X6.b D z A } S @.v., z k 4 N  .x 2 o x k G #.k V.A M.N S ;.S V d.d.a.a 6 V S ",
"I.o.y J p.l.i J -.6 a } @.D ~.1X<X&X`.q.g E G @.B m.j.< @. . .A } ,.:., b 6 < N #.A j O j B 7.#.2 6.D #.6 X.L i s.B.X.o.Z 5 V , ",
"A.T m I h.T y P $.N = 5 N k /..X8Xx.h 2 B 5 D a.B h.%.< C <. .B N M. ., x < < N #.D k < % 7.0.x 4 D D S 5 L s S d.O.K L S 5 5 3 ",
"p.s.J T z.J 1 V D Z = Z *.N F v.U Y   6 <.Z @.6.2 6.g.b 2 b.A A z v.V , k , 2 B #.G k k # 6.6.# 4 6 A D 5 $.S d.a.a { a D 6 , j ",
"V L U @.d.6 Z e @.e e @.N S @.9.x j 4 ; 9.A 6.7.4 7.F 6 #.6.x 4 < <.D X 2 < # F R B %.F R z.B < < x ; B 6 V #.a.F ;.5 e D q < < ",
"C i N :.X., q 4 Z e N } e A  . . .[ v 4 &.A  .F j #.G k [ R c 6 , <.b.G b B A U %.D %.B #.j.n k < z ; k 2 U U %.N >.Z 5 z - < 4 ",
"@ 1 S :.6 3 d > q e A c e c F A  ...z 0  .A x k j B N 6 j z 6 j 6 k #.N.6.D D @.@.C #.b 6.6.G C x j < < h P I Y 6 @.d 5 V z #   ",
", 5 a X.3 d z q 0 6 A q z 4 Z x A  .; j G  .x 4 k k j 4 j 4 4 4 N - z b.V.#.B B F B F 2 9.U N B  .x O < b P %.T D C 3 X 4 N B b ",
"-.S , 5 6 S q Z q 0 A 4 x 3 x Z j c - z B =.D 4 < < < 4 4 4 4 0 j Z x N 9.v.D < D N B < =.k , < D  ., # B P h.J $.;.<.X.V m 5 n ",
"V $.;.u 5 S S Z q z z 4 q 4 j D z 4 - B j G @.k < < - - 4 4 ; j A  .c 6  . .q 4 N 4 z 6 #.6 6 k 4 #.C $ n T h.$ i K J.T.L.a.B m ",
"u K K.K : S >.Z 5 A j 4 j z j A A < 4 F , k <.G < x 4 - 0 4 8 A ..c q z c 4 4 z 0 , 3 N  .N Z D 6 A 7.2 C h.I @ $ $ K a.n.I.S.D.",
"Y.: ;.d.5 5 >.$., A 0 4 4 A z x  .< B @.  O 9.#.z #.A 4 c c c 5.&.q w z - e } 4 c - - x A j N A D < v.y P h.p m p s a.K V a.m.R.",
"Y.s.V v.1 V -.N 4 @.4 < 4 - &.z  .6 N N < k F #.G <.4.=. ...c =.} 0 ] z } c 4 ..- q 4 N 0 4 } A S , N b.h.J i p p $.n.@ V B $.C.",
"a.o.i ;.1 X.C , Z 6 N j < A  .A } x B Z j k F F D -  .9.[ 0 c c c [ ] 0 } c Z [ * 4 0 A A 4 z 4 - , U b.%.n p p s n.5 V V 5 b p.",
"@.;.N N 1 <.6 , B , @.@.- 4  .2.A } N  .B 5 D B Z 4 &.Z z e [ e [ ..; 4 =.[ ..0 z c q c 4.[ Z 4 - Z b.b.J p 1 % K S & d., : b 6 ",
"Z @.N + N >., # 6 N V :.6 .  .9.}  .N  .D < A k z #.9.z  .D q ] 0.c 9 c [ c  .q  .=.0 4 #.0. .0 c 2.M.#.6 1 2 1 V . +.;.q q D 1 ",
", N B O #.%.2 2 V C 1 V @.q Z 3.[ &.q S D 4 B 6 5 D @.*.>.A & =.2.; .. .- - } }  .0.q - A U. .4 c .. .< , 2 6 3 > *.M.> &.[ S N ",
"j 6 N 2 :.F D %.K N S 2 } $.5 f.Z ] 3 d } q 6 5 b z D :.N S Z 4.} 4 2.c = e  .[ } 0.Z , z U...4 c ' j ; , 6 , : r H.| * e e } q ",
"B k k #.%.B D j.@.P ;.6 5 S > 2.Z w ; q } D 6 6 N N D C D #.*.0.Z A Z ; Z [  .Z Z ..<.j z <. .j c ' v ; 4 3 - 3 4.4.9 ' 7 w [ < ",
"x j 6 qX6.2 1 C v.:.L i 5 5 d q d 0 , r  .@.5 b 6 N D D T.*.q M.z =.4 3 0.z 4  .z A N.5 q x [ z 7 v 8 ; 4 - , c H.| 9 w 5.[ ; c "
};
