/* XPM */
static char *ZW1wdHk_[] = {
/* columns rows colors chars-per-pixel */
"64 64 202 2 ",
"   c #223B11",
".  c #253F18",
"X  c #264514",
"o  c #2B4717",
"O  c #254519",
"+  c #2B431C",
"@  c #2C4B1D",
"#  c #314D1D",
"$  c #2D5516",
"%  c #25511C",
"&  c #2D531B",
"*  c #2F581E",
"=  c #34531E",
"-  c #34581C",
";  c #395B1F",
":  c #2C4522",
">  c #2D4D22",
",  c #2D4C28",
"<  c #324D24",
"1  c #334D2B",
"2  c #3A4F2E",
"3  c #2E5324",
"4  c #2E532A",
"5  c #345324",
"6  c #395525",
"7  c #355A24",
"8  c #3A5A25",
"9  c #35542A",
"0  c #3A552C",
"q  c #355A2B",
"w  c #3C5B2C",
"e  c #364E31",
"r  c #384F32",
"t  c #365331",
"y  c #3B5532",
"u  c #325831",
"i  c #3D5B32",
"p  c #3E5639",
"a  c #3E5B39",
"s  c #2E6025",
"d  c #376026",
"f  c #3C6125",
"g  c #34642D",
"h  c #3D622C",
"j  c #3E6233",
"k  c #3D6C34",
"l  c #3D623A",
"z  c #3F683C",
"x  c #405A27",
"c  c #40562F",
"v  c #415D2D",
"b  c #415633",
"n  c #425D34",
"m  c #40543B",
"M  c #435E3A",
"N  c #495F39",
"B  c #416227",
"V  c #42642D",
"C  c #48602E",
"Z  c #44692D",
"A  c #436334",
"S  c #496534",
"D  c #446935",
"F  c #4A6B34",
"G  c #45643A",
"H  c #4A653C",
"J  c #456A3B",
"K  c #4B6B3C",
"L  c #516D3D",
"P  c #427136",
"I  c #4C7235",
"U  c #47713F",
"Y  c #4C713C",
"T  c #507536",
"R  c #53733E",
"E  c #53793D",
"W  c #597D3F",
"Q  c #3B6340",
"!  c #485F43",
"~  c #466441",
"^  c #4A6542",
"/  c #446C43",
"(  c #4D6B42",
")  c #4D6648",
"_  c #446C49",
"`  c #4B6A48",
"'  c #516740",
"]  c #526D44",
"[  c #586F45",
"{  c #536E4A",
"}  c #477245",
"|  c #4E7343",
" . c #4D744A",
".. c #4E7A4C",
"X. c #537344",
"o. c #597545",
"O. c #557945",
"+. c #5A7846",
"@. c #587847",
"#. c #5B7B45",
"$. c #557148",
"%. c #54734A",
"&. c #55744A",
"*. c #57734D",
"=. c #56744E",
"-. c #55734A",
";. c #597648",
":. c #5B764D",
">. c #58774E",
",. c #5A754C",
"<. c #57784A",
"1. c #577B4D",
"2. c #557B4A",
"3. c #5B7B49",
"4. c #5B7B4A",
"5. c #5A7F4B",
"6. c #5A794F",
"7. c #5B7A4C",
"8. c #5C7B4F",
"9. c #5F7F4D",
"0. c #5D7F4D",
"q. c #5B7B4B",
"w. c #4E7852",
"e. c #567152",
"r. c #5B7551",
"t. c #557C52",
"y. c #597950",
"u. c #5E7D51",
"i. c #5F7E55",
"p. c #5C7C52",
"a. c #5D7658",
"s. c #607B46",
"d. c #617E4D",
"f. c #617E50",
"g. c #627D53",
"h. c #637D5A",
"j. c #687E58",
"k. c #518147",
"l. c #5C8246",
"z. c #5E804E",
"x. c #5D824C",
"c. c #5F8353",
"v. c #5D8352",
"b. c #5F8258",
"n. c #608246",
"m. c #618847",
"M. c #62804E",
"N. c #60834D",
"B. c #63844F",
"V. c #62834C",
"C. c #69814F",
"Z. c #63894B",
"A. c #688A4E",
"S. c #618054",
"D. c #648357",
"F. c #678756",
"G. c #638354",
"H. c #698553",
"J. c #648B55",
"K. c #688954",
"L. c #6C8F57",
"P. c #6A8C54",
"I. c #668758",
"U. c #64825C",
"Y. c #64825A",
"T. c #68865A",
"R. c #6A855D",
"E. c #648A5B",
"W. c #6A8B5C",
"Q. c #69895E",
"!. c #6D8F5D",
"~. c #6B8C5C",
"^. c #718A56",
"/. c #718C5C",
"(. c #6A9056",
"). c #65925B",
"_. c #6E935F",
"`. c #6C925C",
"'. c #71925E",
"]. c #75945E",
"[. c #72995D",
"{. c #668B60",
"}. c #6D8E62",
"|. c #6E8C68",
" X c #718A62",
".X c #6E9362",
"XX c #6D9964",
"oX c #709260",
"OX c #729363",
"+X c #7A9664",
"@X c #779A64",
"#X c #769B63",
"$X c #799A65",
"%X c #799C66",
"&X c #7A9D66",
"*X c #75926A",
"=X c #79926A",
"-X c #759C68",
";X c #7C9C6A",
":X c #7A9C6B",
">X c #829E6C",
",X c #83A46B",
/* pixels */
"V ; '.`.J G 9 A w @.M.R 6 0 M p 2 y 1 M n R.G 7 A d z..XX.S ;.X.] M M =.S y H K w w F.R 3.w 8 A j > w > q 9 , i.U.> i y ~ M { G ",
"f F #X0.A u w K 4.X.#.K w 1 M p y p : b i R.X.J K O.!.W.G v ] :.H M ( n G 1 { S A 6 | w R 4.G.V K W.u O j G n y.%.y t 9 H ` ] e.",
"R L.!.A w i ( q.X.h K L H < i 0 b m 1 0 i D.X.K O.b.Y.X.9 9 H $.p M ( 0 G 0 $.i S 5 K w V @.$Xd.D u.u.i y 6.q y.H H q 9 n / i y.",
"N.%XY 5 j ( X.X.w = C F S v n M N M b i i :.H A <.2.K w i w a H 9 G M H S ( ' w ] w K F D n K.;XX.w T.G.5 p.0 &.l G G 9 i G i %.",
"x._.9 w G } j i S w h V S o.H ] [ ^ H b i ' i i <.| i i ( H a H i A i ] >.{ ] G ;.H v S o.A L /. XX.n d.v K K H i w  .i ( i J _ ",
"J.W.q G i H G J R F Z x #.K.n w >.[ ^ v 0 D j n | ( G / %.G a ` ( w b G  XS X.X.L o.w v @.S C o.C.d.S v v L w K K j 0.J | j J J ",
"`.2.A q q z y.X.h F #.f +XG.8 6 o.L ' v 0 A n A ( H G ^ ` ~ a G %.i i K W.A K :.H X.A S R S S L v L L v S L 6 K 0.X.2.J O.k j | ",
"O.3 j 4 l G i.i 5 V A.; ,XE w X.L K L n w A y i ~ H l a ~ ` ~ y H A 0 &.0.A w ;.;.L v R o.K L v C S 6 L K x +.w q.z.K j <.} q c.",
"U u q 3 l y.} 3 8 Z.I I ,XT v K K F 6 # S K v 0 a H G u ` a ~ a 9 A A :XX.A D A S K S H L L H F S C v x C X.L V J K.j Y J X.U x.",
"D q 3 q &.t.w q 7 V.Z W A.n.V C C x 6 8 H K v 5 0 n i y G z H j | 7 O.%Xw V F A S n v S L [ L L S S v 8 v R X.A A q.D O.| Y J v.",
"D q 3 z {. .> j h E B E E F h 8 B ; ; x S S v v 5 i 9 y i / z A O.7 OXOXA Y A A v v 0 S L H H L L F S v S R o.D w O.K K K J } x.",
"h 7 D 2.b.G 3 J Y V Z I I & V h 8 x C F v C K n 0 v 0 w i | A D D Y %XO.R @.w R v 8 0 n n b H [ L L L S S ;.0.D 7 O.<.q w h |  .",
"3 7 x.b.G q u I q.f f Z F f R V = F n.E v S L n v n n A j <.D K D m.(.d D R X.o.X.v 6 0 c v H [ L K L K A o.f.K i K X.9 q 9 G K ",
"% 8 c.v.3 q K U V.T $ f V #.D 5 F m.C.F ; C o.L S S L A K x.D P E x.(.D D O.P.K H.S # < n H H H S S X.K D 0.Y.K A 5 D i A 9 w j ",
"* k c.| q } O.J J.E - f T #.h D C.A.W x x F o.[ L S o.A R x.F P E l.l.I E V.V.K /.L 6 # n ' ' S A D O.X.A u.}.] w > i w G ( n i ",
"d Y O.k J G.k.I (.F h Z (.F D $XA.A.T C L o.F n L S +.A O.x.F F I l.F 7 n.G.D 0.T.;.A 0 v H ' H n A ] K V 4.}.X.5 5 n > 0 G.&.w ",
"h I I 5 h W.F #.#.F Z A.I h [.(.(.E Z V.8 F D K Y D K j O.J.k j I x.E I 4.R S :.F.o.o.w G O.| ( n 2 S 5 S s.>Xv # 6 > A w h F.A ",
"h Z D = J 4.D K K A Z #.T I [.x.(.I V 7 Y F Y K X.D K A 2.c.D J F K n.K.K v K ;.f.] ( h O.O.j w p < b 0 R s.].v 6 = n D 5 5 O.E ",
"j j j q &.K A n H A K Y I X.l.Y Z Y R w !.X.K h K i G A | 1.i A D j x.'.O.w A o.( K X.( ;.D 7 A n y < v s.R P.v # @ K X.D j F #.",
"J J y j %.y n 0 G M H A J } j F h | D w X.G.| K D 9 w w J H w A j I K 3.F.( 0 ( A H ] ] &.9 w 1.{ { < 6 #.R C.F 5 = A } <.x.Y Y ",
"~ ` , ~ G t p M p 9 M a G / w  .j j > w A OXG.i n 0 0 n H n b H A J A H h.$.0 n H i i G O.w A 1.{ g.b w o.#.K.K K i 9 J <.| O.U ",
"i l , Q e t ! ! p e m p p i 9 ( j 3 q A A E. XK y 0 0 0 n v b H G j G / G G H 0 b 0 b S K q K &.y { H w L x.V.F Y q q 2.2.j I U ",
"4 u 4 t t a ! a p t p y y i i l J q J q 4 ( *X|.6 0 1 0 y c n ' ( G H ( M 0 b y 1 0 G K i 5 O.X.: a ] D F x.Y w w 3 | p.J U U U ",
"4 , a , p ! ) r e e 2 e y G ( y / i u i 9 ( T.Y.1 n 0 c n b H ] ( ` l G { t : M n 0 0 M i A F.K 9 M i.X.F #.Z w D j {.} 4 x...F ",
"4 u 3 i y G ~ M ^ ) y : 9 b >.i %.q =./ 9 J =.p.M n 0 [ j.[ N b a ( =.G ^ y 9 : ,.b : n n d.0.X.0 i G X.O.R V w j J 2.j z 2.J j ",
"j } J j q X.] ] ' ^ n 0 i 0 X.G ( i G =.y i &.p.0 ^ ' *.r.H N b 9 G ^ M ) p 2 y 2 ! n 0 i 6.3.K 9 M K L K F V 5 j | u a ( } } g ",
"g O.2.k q S.&.&.] H H H D 5 K ( H _ u U.i 4 &.X.a ] $.*.' n n 0 ] H a 0 ^ N y 1 b r.' < S y.;.( y G [ K D A V 7 i J q z | J ( j ",
"g U J.X.j v.J ( X.n K ( K 5 A K J =.u i.y q %.G ] H ' $.' w b w >.5 i ;.:.0 1 2 g.*.^ 0 ] ] X.( M ] X.S v Z V 8 0 y ` z G / i } ",
"I I ).).Y O.q K ( q G | X.w h K / %.i | y ( ` G X.0 K i.&.w w K O.X H f.n + [  Xg.b n n H i K H ] $.' A x v C 8 9 A  .l i z q J ",
"k k k.).k.U q t.J 5 G J X.j j J H H i l u 1.| J j 9 6.oX<.j D 4.A V L 6 + n =XR.m 0 ^ H 0 0 J n { { L v 8 6 6 5 n ] a a a u i 4 ",
"g s k ).v.} J .XG 4 G G / D j G j l i y i %.( D 4 j oX.XJ D Y x.> R L # L  Xh.+ 0 n H H 9 w i b ^ S N v 6 # = 6 ( ( 9 a ~ u a q ",
"g g k XXb.P U W.j 9 / G H G D G y i 9 q A i G u 5 } :Xx.7 J 2. .K K 5 <  Xf.0 0 A ] b n n w > A b c n S v # 6 A ;.i A l ~ J 9 J ",
"g g ).b.:Xg E G.w K ^ ( N x c c 0 n r 1 ~ G y 0 5 v.L.O.q j q t.H y y ( M ( n 9 j w w Y G.D & h G J 4 K w 5 o 3.K i i J J j z J ",
"l k.v.k ).F P 2.5 i b S N C C x c N y 1 t p y y G <.G.Y 7 q  ./ a i y M , i G G ( h q K x.(.O.d O.2.J j 5 K w K A h D } J A U 2.",
"Q ).P % x.I h O.9 G N b x # C x L c 2 { a.! M e.X.| #.J q h E.y y y y a < i H ( j w K <.O.K.`.| J O.v.K 7 K D K i w J Y J D U } ",
"k.b.g 3 k.| 3 | n j 2 0 c x C C c H N y ^ h.*.y ( G ( w w } U.t , y i M M G ( ( y w | u.J h O..XY j 1.O.G S i A w w j D k k J k ",
"b.w.u u D k 7 J A ( ] >.N # x S L [ N . 1 e.{ < n A H 9 y b.~ a 9 9 y M { ( ( i A A l J J 5 j E..Xj G K X.K w 5 q q j D j J J J ",
"Q b.Q g 3 h j A G ( >.R.d.n v v s.L ' N b r m N 0 b S 5 M h., ! M 9 1 n r.{ G i i ( G w G q y X.OX<.j A A J J J 5 5 j z w g } 2.",
"Q Q Q Q q q G | G 9 > S /.+X/.L C [ d.N 2 b N 1 0 0 n < M r.1 p ! < < i p.H i G y ( ( i y i G G 1.S.h K q 5 A X.J w j j q q U k.",
"Q z Q k. .q j E.w G b y S d.>X].j.[ [ ' 0 2 b 1 1 < 0 : ^ ! p e G 1 9 n h.G u H G l ^ G u G ^ , ( v.5 X.A o 3 w .X| q h j j Y 2.",
"Q k z z D 3 -X .> H y w i v s.^.^.j.N L C . N [ n   6 1 b N p t 0 y 5 U.G n G n n ] G M y ) i + G G.@ Y.q 3 5 7 <.E.k.j u q 2.Y ",
"l u u s h D %XX.i ( H i 0 6 F s.s.C.S x b r.j.N h.n # < r N t 1 0 w n h.A n n H n ( G n M S 0 < K F.3 ~.i 7 J  .J O.J.} D j | v.",
"l 4 3 7 h x.XXY 4 w %.&.K C w B s.T S L [ j.j.2 /.H.6 6 1 n r y w i O.X.v i A K b H M 0 N 0 1 c K !.w !.A 5 | x.7 D `.c.D J D {.",
"} g 3 g P [.x.j j 9 ( %.H K C A C B s.j.,.L c 2 #.+XL A n c p M G H h.G n v b H D S b < S 0 v L H OXh W.A q O. .3 } E.W.k j j G.",
").J d Z W [.I D 6.w ( %.L X.C S B F G.o.v w n v S OXd.C L b H ( K X.G.9 n w 0 A L S c o v v L [ w /.K G.A J 2.J k v.x.v.j h A J ",
"&XE d I l.A.h I O.w i X.X.K w v #.n.#.w < 5 H X.S P.M.8 R ( ] H K 0.3.5 A w 6 A ;.S x # 6 L s.[ 0 d.K &.w Y } h 2.J. .2.G q A 9 ",
"_.l.f E m.E f Y O.j : w G v K #.P.n.; 7 D 6 K d.Z V.#.; F 1.] S A G.( 5 v 6 6 S o.L v 6 6 s.d.C 0 K J K 7 | z k b.O.Y J J q w 7 ",
"l.E I W P.I ; D K j > G &.A L C.L E X w 6.H X.V.8 d.n.C w H.H S n F.F 5 v 5 8 S o.H x v = j.d.6 c w A K w ..F v.x.j / j K w 3 w ",
"D K I O.v.w G i %.j i X.G K ] 6.N 0 0 1 g.S d.s.c ;.L x o.d.N c 0 d.S # 8 6 = R ;.F ;.T R A.S 6 6 n < S v Z o.d.( <.q i ( w 5 0 ",
"I j A 1.| 5 i 9 H a M ( i ( ] ] ' ! n 0 *.S ] L v o.L v L L n v < +.H.F A S K R o.F ;.S o.C.S x 0 b 0 v 8 T o.E D 8.G y i 5 6 8 ",
"% 7 J 2.y 9 G 9 i i / n n A K H [ { n w ' H N c c S n x b n v 0 w n ;.~.s.L K X.R F o.V d.s.F F n c 6 6 8 E E E w Y A q A V 5 X ",
"5 h j ( q a j u y y H i n 0 H M H [ 1 b ^ [ S 6 6 v c c 0 0 0 0 n = n D./.o.S S L F L 6 H.R A S ' N # ; C I #.W K K 9 @ w A A C ",
"O.I 3 q i J q H i i M 0 n 0 n H b A < n S o.H 0 c 6 6 0 0 0 0 y b H A A f.D.H 5 L C H 6 ;.n 5 6 L ] = = Z T Z.I O.1.k.| D w w Z ",
"k 2.O.g q J H G A n b v n 0 c H n 0 < S v L [ v 5 6 < < 0 0 1 p G ] M w ] ] b w n c v w o.i w v 0 o.F = Z W Z.$ Z I _.:XOXV.Z V ",
"w U XX| 3 J 6.K w G 0 0 c b c H H 6 0 L < v +.L 6 N 0 < y 0 0 N { n y n n 0 0 A i < 9 A { n S K w S s.8 F m.T $ & 7 | x.K.#X[.#X",
"-X3 2.v.q q 1.O.5 H c 0 0 L c N ' 9 S [ o # d.o.v o.H 0 N M M r.$.a n n 1 i ( 0 b < < G S i n H K 6 G.V T m.f B 7 k x.U D x.P.].",
"-Xk.D v.7 D <.A w X.9 6 0 1 $.N ] w A A 6 v L #.K +.u.r.] { M *.( y ~ n ( M 0 ] 5 i y S y 0 ( K K 5 A A.m.I f d d E J.& D D O.(.",
"v.O.h q.q X.D 5 G w D b 5 S ' H ] n S H v w K ] K # ] f.H y M G M ) G p ) M G ( : 0 y G H 0 n 0 1 5 L K.l.Z f d k J.q D D q V l.",
"X.&.V A 7 q.w 7 V 5 X.X.5 0 ] :.H K A X.A 0 K S H 0 $.H M i ^ a ) ( 9 0 $.^ { p i M a n u.^ A 0 < H H.F.I 7 d - I z % b.5 3 V h ",
"D X.A 3 V q.5 = w A D 3.w X ( h.( ] n ( K 0 S v w o.u.A ' ( i ~ h.n e M ] M ( i [ >.0 0 $.Y.' i n *.T.X.w ; 8 7 J @ | e.i w K 5 ",
"5 A S @ o.@.8 8 D F 5 J X.w J y.~ | y ( K 9 A w w K X.&.>.H > %.r.9 { ] < < ( ( X.h.w 1 H *X[ 0 M { ' 0 5 8 w 5 3 =.U., %.( G A ",
"v 0 A 8 +.R K #.L D D 7 (  .q D.H ~ 9 G ( i w w v j H 3.A H H y.( 9 r.M : i [ ^ H h.S 9 a *X] 0 ! ! p < 5 w 5 4 u |.` e a a ( i ",
"S v v ;.@.S F C.X.Y 2.h u J 4 t.l a 1 q ( K w w C A K F K O.&.h.S G G 1 H ( ( G S $.r.w n 8.[ y M ! y < 0 9 > 9 u.a.t Q e y ( 1 ",
"n 0 v >Xn.w 5 F N.x.Y j q q j y G t 9 y X.X.w j w A D X.;X<.w Y.n r.9 2 g.n 0 ( n H R.w v n H n e m y 1 0 < 5 G |.` t p e.^ 1 H "
};
