/* XPM */
static char *bHJhdA__[] = {
/* columns rows colors chars-per-pixel */
"64 64 239 2 ",
"   c #233B1C",
".  c #2D3D2A",
"X  c #303034",
"o  c #37393A",
"O  c #771229",
"+  c #274419",
"@  c #2C4B1D",
"#  c #314D1C",
"$  c #2B551B",
"%  c #2D531C",
"&  c #34571D",
"*  c #2D4527",
"=  c #2D4D23",
"-  c #324D25",
";  c #344C2B",
":  c #35492C",
">  c #2E5324",
",  c #2E532A",
"<  c #335424",
"1  c #3A5525",
"2  c #355A24",
"3  c #3A5B26",
"4  c #35542A",
"5  c #3A552C",
"6  c #355B2B",
"7  c #3B5B2D",
"8  c #364334",
"9  c #374C31",
"0  c #3A4D35",
"q  c #3D443D",
"w  c #3D4B3A",
"e  c #355232",
"r  c #3B5533",
"t  c #3D5C32",
"y  c #3C5938",
"u  c #2E6025",
"i  c #3C6125",
"p  c #34632B",
"a  c #3D622C",
"s  c #3D6233",
"d  c #3D6B36",
"f  c #3D623A",
"g  c #405929",
"h  c #425C2D",
"j  c #404E3E",
"k  c #445937",
"l  c #425D34",
"z  c #43543C",
"x  c #435D3B",
"c  c #44662B",
"v  c #42652D",
"b  c #436334",
"n  c #4A6434",
"m  c #446935",
"M  c #4A6D33",
"N  c #44643B",
"B  c #4A653C",
"V  c #456A3A",
"C  c #4B6B3C",
"Z  c #526C3D",
"A  c #497237",
"S  c #4B713D",
"D  c #52733E",
"F  c #53793B",
"G  c #3B2D44",
"H  c #3D3642",
"J  c #442C4C",
"K  c #433748",
"L  c #493C4D",
"P  c #4C2C55",
"I  c #4F2D58",
"U  c #5C2554",
"Y  c #522C5A",
"T  c #4D3355",
"R  c #4D3C52",
"E  c #54315C",
"W  c #553B5A",
"Q  c #5A2F62",
"!  c #5B3763",
"~  c #5B3364",
"^  c #612D60",
"/  c #64356B",
"(  c #643B6B",
")  c #653D69",
"_  c #6B3672",
"`  c #6C3A74",
"'  c #6F3B78",
"]  c #743B7C",
"[  c #753B7C",
"{  c #3D5240",
"}  c #484849",
"|  c #495645",
" . c #4B5C43",
".. c #57465A",
"X. c #555753",
"o. c #466341",
"O. c #4B6542",
"+. c #476A45",
"@. c #4C6C42",
"#. c #526D44",
"$. c #546A49",
"%. c #4D7342",
"&. c #4C774A",
"*. c #537344",
"=. c #597445",
"-. c #547945",
";. c #5A7B44",
":. c #55744A",
">. c #5A744C",
",. c #557B4A",
"<. c #5B7C4C",
"1. c #5C6753",
"2. c #4E7852",
"3. c #577852",
"4. c #5B7C52",
"5. c #617C4B",
"6. c #646D58",
"7. c #647556",
"8. c #5D4263",
"9. c #595460",
"0. c #69476A",
"q. c #744A65",
"w. c #6D506E",
"e. c #76576E",
"r. c #75427B",
"t. c #784B7A",
"y. c #7A5778",
"u. c #74686B",
"i. c #6F7761",
"p. c #757B67",
"a. c #7D6375",
"s. c #9A131A",
"d. c #8D1A2D",
"f. c #A8182A",
"g. c #8A2335",
"h. c #913947",
"j. c #AD2F42",
"k. c #934756",
"l. c #8F596D",
"z. c #B05B69",
"x. c #86687A",
"c. c #8F7570",
"v. c #867A76",
"b. c #C4737F",
"n. c #578246",
"m. c #5C824D",
"M. c #5D8352",
"N. c #5F8258",
"B. c #62844C",
"V. c #64884B",
"C. c #628454",
"Z. c #638B55",
"A. c #6A8C54",
"S. c #658459",
"D. c #6A8658",
"F. c #658A5A",
"G. c #6B8D5C",
"H. c #718B57",
"J. c #66925A",
"K. c #6C925D",
"L. c #73965D",
"P. c #6A8D62",
"I. c #7B846A",
"U. c #6E9663",
"Y. c #769B64",
"T. c #769866",
"R. c #868875",
"E. c #99867A",
"W. c #8A9576",
"Q. c #B0867B",
"!. c #83A46B",
"~. c #7C3D83",
"^. c #7C4284",
"/. c #7C4484",
"(. c #803F87",
"). c #823E8A",
"_. c #83438B",
"`. c #83498A",
"'. c #874790",
"]. c #8A4692",
"[. c #8D4995",
"{. c #8F4998",
"}. c #904B97",
"|. c #914B99",
" X c #915594",
".X c #906C8E",
"XX c #8B7781",
"oX c #9E5FA0",
"OX c #A770A5",
"+X c #96888F",
"@X c #9B9A86",
"#X c #A7918D",
"$X c #A5A38C",
"%X c #B5A689",
"&X c #ABA796",
"*X c #B5AB99",
"=X c #B8B59E",
"-X c #B28FA8",
";X c #AEAEAA",
":X c #B8B4A4",
">X c #BDBBA2",
",X c #C4AD96",
"<X c #CABA99",
"1X c #C3BDA6",
"2X c #C6ADB4",
"3X c #D3C39C",
"4X c #C6C3AA",
"5X c #CCCAAE",
"6X c #DBCAA1",
"7X c #CBC7B2",
"8X c #D2CEB2",
"9X c #D8C6BD",
"0X c #D6D2B6",
"qX c #DAD6BA",
"wX c #DDDABC",
"eX c #E7D4AA",
"rX c #E7D5AA",
"tX c #E3DCBC",
"yX c #F7E3B5",
"uX c #FFEBBB",
"iX c #C2BEC4",
"pX c #C8C7C7",
"aX c #D7CCC8",
"sX c #D1D0CF",
"dX c #D7D7D7",
"fX c #EADDCA",
"gX c #E5E2C3",
"hX c #E9E4C5",
"jX c #EBE8C7",
"kX c #EDEAC9",
"lX c #F1EDCC",
"zX c #F1ECD0",
"xX c #F6F2D1",
"cX c #FAF5D4",
"vX c #FDF9D6",
"bX c #FFFCD9",
"nX c #E0DFE0",
"mX c #E7E8E8",
"MX c #F9F8F8",
/* pixels */
"c & L.G.V N 4 b 7 =.B.*.1 5 x r 9 r : l l D.V 1 s 7 m.U.-.n :.=.#.k x >.N 5 B B * G T T H 8 > b t > 6 = 6 5 = 4.P.* t t O.x $.o.",
"i M T.m.t 7 t C <.-.=.n t - x y r w ; r t G.@.V S -.G.G.b l #.>.O.y @.l B ; @.o ` ].{.{.].r.L * B G.e + t N x >.:.e e 4 N @.#.3.",
"D L.K.b t t @.<.*.c M Z B - t r k g ; 0 t C.*.C -.M.D.*.5 < N :.t x @.5 x 4 q /.|.|.|.].|.|.].! . ,.4.t 7 3.5 ,.V B e < f O.t 3.",
"B.T.C < s @.*.*.7 # v Z n h l x B x r g k >.B b ,.,.B 7 t r t O.4 B x B B l / |.|.^.E P I ` {.|.E * S.C.4 4.5 :.b N N 4 l b t :.",
"<.K.4 t N @.s t n 3 3 c n =.B #.$.O.B k r C t 7 ,.*.t t @.o.k @.l x t #.>.z ^.|.'.~ ^._./.Y Y ].[.J 1 5.t C C B t 7 %.t V t V @.",
"A.K.6 b t V N V S M n c ;.A.l 7  .} j g 5 N b l #.@.N N :.o.y @.#.7 l B D.H '.|.^./ |.|.|.|.~ ~ |./.X h h #.h C @.s 4.V &.t +.V ",
"K.,.s 7 6 N 3.*.c M ;.7 Y.V.< o ' ]./.K 5 b b b B O.N @.+.o.y N #.7 7 B G.o ^.|.' [ |.|.|.|.}.Y /.|.~ * n Z < C <.=.,.V -.d s %.",
"-.> s , y V N.7 < v A.& !.F 9 W x.t.|.[ 8 b t t V N N y +.@.o.r B b 5 ,.4.o [ |.^.` |.|.|.|.|.` / |.].G n 7 <.3 <.m.C s ,.S 6 M.",
"V p 6 , f 4.C > 3 V.A F !.M T E.3XE.`.}.W B h 5 t N b r +.y o.y 6 m b T.-.; Q / ~ Y / ].|.|.|._.Y |.|.` : *.Z b m Z.s D V %.S ,.",
"V 6 = 6 ,.3.6 6 2 B.c F H.x a.eXeX<Xy.}._.j g - 5 x t e o.N V f %.< ;.T.7 2 G ` ].|.~.~ [.|.|._.~ |.|.].o C D v b <.m -.%.S C M.",
"m 6 > V P.&.= d a F c F Z } %XuXyXeXE.`.}.W l 7 - r 4 6 t +.f N -.2 T.U.b } /.|.[.r.r.[ ` |.|.(.Q |.|.|./ x =.m 3 -.%.V C V %.M.",
"6 2 s 3.N.b > V S c c M 7 0.eXuXuXyX%X`.|.) 0 } W ! ) ! ..} y N m D T.D z /.|.].w.c.0.].Q ~.]./ ~ |.|.|.).j <.C 3 =.:.6 6 s %.%.",
"2 2 ,.F.f 6 6 C n.i i c 0 x.yXyXuXuX<Xq./ ( /.'.}.|.|.|.|.{.~.! j <.K.< ( |.[.q.%X3XE./.` / ~.P ` ].|.|.|.W :.V h C *.< 6 4 V C ",
"$ 6 N.M.> 6 C S B.M & i } #XuXuXuXuX%X8.^.|.|.|.}.|.|.|.|.|.|.|./...:.} ].|.w.%X6XyX6Xt.^.I J Y (.).|.|.|.` #.B b < N t b 4 7 t ",
"$ c M.S 6 %.-.V Z.F & i } E.uXuXlX3Xe.[.|.|.|.|.}.|.|.|.|.|.{.|.|._.T [ |._.E.3XyXuXuXc.'.K 0 J ~.(.].|.|.`.| *.7 = t 7 N B x 7 ",
"p S -.d V M.m.S A.M i n 6.x.yXuXeXe.].|.|.|.|.|.|.|.|.|.|.|.|.|.|.[.` }.|.y.3XyXuXuXuX%X^.W B 9 / (.'.|.[.[...@.- < l = 7 C.>.7 ",
"c S S & 7 G.n n.;.M m Z. .r.*XuX%X~ ^.|.|.|.|.|.|.|.|.|.|.|.|.|.|.{.[.|.`.E.eXuXuXuXuX3X/.( B N J ~.(.}.|.|.) - @ 1 > b 5 a G.v ",
"a c m & n m.n C M b c ;.n 0./.E.w.+X.X|.|.|.|.|.|.|.|.|.|.|.|.{.|.|.|.|.y.3XuXuXuXuXuXeXy.` 7 t . / (.].|.|.' ; < < l b < & D -.",
"s s s 4 :.B b l B b C S C o.0.` e.pXq._.|.|.|.|.|.|.|.|.|.|.|.{.]._.'.[.e.eXuXuXuXuXuXeXy.` > b 5 P (.'.|.|.^.. # @ C *.m b m <.",
"C V 6 f *.t t r x l B N V @.t H +Xl.O /.|.|.|.|.|.|.|.|.|.).).~.t.a.) [.r.#XuXuXuXuXuX6Xt.` < 4.$.K [ ).|.|.`.o < < m @.-.m.S S ",
"o.+.e o.N e y w p.R.$.r b V r | +Xg.z.`.|.|.|.|.{.|.|.|._.] U O +XmX.X[.{.w.,XeXyXyX6Xc.`.W s ,.:.z ` (.|.|.].H C t 2 V ,.S *.S ",
"y f * f 9 e  .N | R.4X@X| y ; X.x.j.:X`.|.|.|.|.|.|.|.).[ ) O s.k.MX;X/.|.' ! y.x.x.y._.[ : C -.t z Q _.].|.[.J S 6 6 2.,.s S D ",
", , , e e { o.x y 9 1.=X0Xp.z +Xh.f.l._.|.|.|.|.|.|.).l.y.aXz.s.O nXpX~.|.'.T ( ] [ [ ! r < -.*.- r T (.}.|.[.J a < %.3.@.S S S ",
", , y , y x $.e 9 9 ; 9 @XgX&X5X,XQ.q.].|.|.|.|.|.[.).U #XMXz.f.g.dXsX~.|.[.! r r : r l t b S.@.5 r L ~.[.|.|.J b f J.+., m.&.d ",
", 6 , 6 e N B x O.O.r * ; p.fXqXvXcXOX{.|.|.|.|.|.{.[ O j.b.f.f.h.dXpX~.{.{./.o >.r - x l <.5.*.r t K ~.[.|.[.P a V 3.f f &.V d ",
"d @.V f 6 *.$.#.@.B x 5 5 | $XlXbXvX-X~.|.}.|.|.}._.[ c.h.d.f.f.h.mX;X-XoX'./.G ; x k ; 5 <.<.B 5 b o [ ].|.[.J s %.6 f %.+.%.p ",
"p -.,.d 6 C.:.%.#.B B n b 6.fXkXvXvXpX] ].}.'.'.]._.-XlXkX8X,X,X2XzXaXhX&X+X&X:X5X8X5X1X&XW.7.B ; N o ~.].|.[.G t V 4 o.&.V S d ",
"a S Z.%.s m.V +.*.l C #.@.1.kXbXbXcXlX2X`.~._ [  X-XzXvXbXbXbXbXbXbXbXcXxXvXzXqX1X&XW.R.I.p.6.z r #.j [ [.|.'.o 5 t @.f f +.6 @.",
"S A J.J.S n.6 +.@.6 N %.%.r 0XbXbXvX5XqXaX-X-X2XfXcXvXvXbXbXbXvXbXbXvXxX8X*Xx.L O.k k k B t C B #.:.} [ [.|.`.X 6 b &.f y f 6 +.",
"d d n.J.n.d 6 M.V < N B *.t W.vXbXbX0XR.1X0XwXfX8X&X$X5XbXbXbXbXbXbXbXgX1X8X.X| k 5 B B 4 5 B l $.$.K [ }.|.[ . l $.t y t 6 f 4 ",
"p 2 d J.M.d V P.N > N N @.N t 1XbXbXjX7XsXsXpXdXdX;X8X4XlXbXbXbXbXbXvXkXtX8X..  1 x B B 5 7 t l B x K ^.[.|./ - @.@.5 y o.t t 4 ",
"p p d U.J.d &.J.s 4 @.f N V b  .5XbXbXhXsXMXMXMXMX;XlXlXxXbXvXbXbXvXvXfXqXv.. 5 l #.l l l 7 @ l h 5 T _.[.}.E 5 :.l s f o.V , V ",
"p p J.J.Y.p -.M.3 B B #.h 1 g g  .>XvXvX7XMXsXMXmX&XvXbXbXbXbXbXbXbXxX8Xv.( K 4 b 7 7 S B.m % a V t Q `.|.].G ,.Z 7 7 V V s f S ",
"f &.n.d J.m A ;.< l l n n n n g 5 z @XkXaXdXpXMXiX5XbXvXbXbXvXvXbXxX*Xe.' ^./ 9 B t 6 C B.K.-.p *.N / '.|.^.; C b t V %.C d S &.",
"&.N.d > m.D a *.4 N k l g g g g Z g ; i.=X4X;XpX;XkXbXbXbXvXbXcX1XXX^._.~.~.~.W 0 6 C =.-.Z.G.*.S z ` ].|./ b B 7 7 V C V d @.%.",
"2.M.p > n.A > %.l l : g : g n n k B k r o.R.>XlXxXvXbXbXbXbXvXaX`.].|.|.{._._.~._ L x <.V a -.K.C o ~.].].} 7 b h 7 s m V V d p ",
"M.2.u u V d 2 V b @.$.>.n # g n Z $.k # ; $. .@XcXbXbXbXbXbXbXaX|.].|.|.|.|.[.]._.~./ q f > t F.F.L ~.|.~.y 3 < 4 6 s V d V C d ",
"2.2.f p > a s m b @.4.G.7.h g h 5.Z B B r r w Y *XbXbXbXbXbXbXfX/./.|.|.|.|.|.|.|.].).[ K 4 t *.S.~ '.|.W b B V < < s d 6 p @.,.",
"2.+.+.f 6 6 N %.b 5 * B H.T.H.Z n Z 1.n 9 x w _ y.kXbXbXbXbXbXxXa.].|.[.|.|.|.|.|.|.{.].~.H y f  ._ [./.8 4 m %.C 7 s s 6 6 S m.",
"f f f &.%.6 s F.5 N k 5 n 5.!.L.5.=.$.Z 5 9 8 ` r.5XbXbXbXbXbXhXy.|.|.|.|.|.|.].|.|.|.{.].] o * } ~.|.8.y @ @ t K.%.6 a p d %.&.",
"f , f f d , U.2.= O.t 5 h h 5.H.R.V.n Z k + q k._ ;XbXbXbXbXbX7Xr.{.{.|.|.|.|.' ^.^.^.].|.].T   ! ].^.$.6 > < 6 ,.F.,.s p 6 ,.S ",
"f , p , f d Y.&.t @.N l 1 < M 5.5.5.n g k 5...~.~.&XbXbXbXbXbX*X^.|.|.|.|.|.|.! I ~ ~ Q ^.|.^.X [ |.E D.7 2 V %.V ,.N.%.s s %.M.",
"f , , u a M.Y.S > 7 :.:.O.b 3 g ;.Z n n >.S.} ^.~.&XbXbXbXbXbX+X_.|.|.|.|.|.^./ ].|.{.^.( ^.|.T ^.^.: G.b < *.m.2 V J.F.N m V G.",
"2.u , u A L.m.s s 4 @.:.C Z l n n i ;.H.>.O.R |.^.#XbXbXcXbXcXXX'.|.|.|.|.]._ '.|.|.|.|.|.].|.` ~ 1.s G.b 6 &.%.> S F.F.m m s M.",
"J.d i c F L.A M ,.t @.:.#.#.v n g M D.=.t 5 ( }.].#XbXbXbXbXxXx.{.{.|.|.|.' ^.|.|.|.|.|.|.|.|.^.X S.B C.s V ,.V d M.m.M.s 7 m V ",
"Y.F i A n.V.a S =.7 t @.=.C 7 v F B.;.a - - [ |.].+XbXbXbXbXkXy.|.|.|.|.`./ {.|.|.|.|.|.|.|.|.|.J 3.B =.7 %.S s ,.F.%.&.N 6 b < ",
"L.n.c F V.n.i F -.b @ r b h n 5.A.V.& 3 b w _.|.]..XvXbXbXbXhXy.|.{.|.{./ ^.|.|.|.|.|.|.|.|.|.|./ l V C 2 %.d V M.&.S V V 6 7 4 ",
"n.n.M n.V.A & c C s = b >.b Z B.D D + 7 ,...[.|.].XXzXbXbXbXwXy.{.|.|.`.~ {.|.|.|.|.|.|.|.|.|.|.] : b C a -.m M.m.s %.s @.3 < 7 ",
"c C S ;.M.7 b t *.t t $.b @.#.,.l 5 g ; :.0.|.|.|.t.5XbXvXbX0X/.|.|.|.[ / ].|.|.|.|.|.|.|.|.|.|./.8 - n g c ;.B.Z :.6 t @.7 < 1 ",
"S a b ,.%.; t r N y b @.t @.*.#.$.B k 5  .~.|.|.|.[ $XlXvXvX4X/.|.|.|._ / ].|.|.|.|.|.}.|.|.|.|._.o 5 h 1 F F =.n ,.N r t < 1 5 ",
"$ 2 C ,.t 4 y 4 t y B l l x Z B #.$.k g X.].|.|.].[ e.0XhXcX*X_.|.|.|.[ / ).|.|.}.|.|.|.|.|.|.|.`.X 1 1 i F F F 7 *.s 7 b h < + ",
"< 3 s C 6 s b t r t @.t l 5 n x B $.; k 8.}.|.[._.^.E @XaXgXXX].|.|.|.~.Y ).[.|.|.|.|.|.|.|.|.|.[ : # < c M V.F S C < @ 3 n b c ",
",.V > p 7 V 5 N t 5 N r l 4 l B l l - g [ |.|.[.^._ P / *X7Xy.|.|.|.}._.E _ ].|.|.|.[.|.|.|.|.|.~ x # & n M V.c -.m.M.%.V h 3 v ",
"d ;.2.6 2 +.V V l l l g l 5 7 Z l 5 - j '.|.}._.] Y ~.l.w.v.^.|.|.|._.~./ E ^.].|.|.|.|.|.|.|.].o #.n & c n.V.$ a V K.Y.U.B.v c ",
"a S U.%.> m ,.C 7 N r 5 g k g x B 1 5 ..}.|._.[ w..X X`.~.Q ].|.|.]._.] u.v.[ _.[.|.|.|.|.|.|.~ : n 5.3 M V.F $ $ 2 S m.A.Y.Y.L.",
"T.> n.M.6 6 4.:.< B g ; 5 Z k x Z k u. X|.].(.0.$X0X0X2Xt.` |.|.|._.[ 0.1X4X0.~.`.[.|.|.|.}.` 0 B 1 V.v F V.i i i d m.%.m ;.A.Y.",
"Y.<.d C.2 m ,.b 5 =.1 ; 5 - #.6.W.4XlXfXOX).` *XtX5X5X>X0.'.|.|.].^.~ v.>X=Xu./ /.`.].}.]._ K N C 1 b V.V.A i i u F Z.> m m ;.A.",
"m.-.a <.2 *.n < C 3 n g 1 B 7.=XqXwXtXlX:X_.R 6.6. .O.} [ |.|.[.)._ q r o.z 9 T ^ _ _.`.'._.` : ; < Z A.n.c i 2 a A.6 s m 2 a m.",
"%.,.a b 6 <.7 2 b < *.*.< 5 6.5X5X4XqX5X:Xu.k n n r R.-X-X|.|._.[ } ; r 7.W.&X|.{.'.].|.|.}._ * - B C.D.M i 2 2 S d > N.< > v a ",
"b *.b < v <.< & 3 b B ,.t + $.p.R.@X7.6. .1 B $.W.=XhXbXbX-X).(.8.k 1 R.8XfXcX2XOXOXoX{.{.~.K 5 l >.S.=.a & 3 2 V @ %.,.t 7 C 2 ",
"< l n @ =.-.3 1 n n < V *.t V >.o.@.t @.@.3 $.&X7XfXqXhXvX9X.X) O.4 1.$X1XhXlXtXxXcXfXoX' X.B r x $.O.5 < 1 3 2 ; 2.4., $.@.N b ",
"h 7 b 7 5.D M =.S m m 2 @.*.4 N.N @.4 y @.h x $XtX1XgXhX0X5X$X1.O.e >.6.wX8X1XhXhX4X@XX.r P.*.5 x O.k - 4 3 6 = e T.+.e y b @.t ",
"B h g ;.=.b C B.-.S ,.a s V , 4.y y < r @.B 5 R.R.=X$XI.7.$.*.7.o.B N 6.R.6.8X&X7.$.:.7 k 5.#.5 z  .r ; 5 4 = e 3.3.e x 9 r O.1 ",
"l 5 g !.B.g < M B.m.S s , 6 f 6 N r , t #.*.7 7 1 x b C T.,.t S.l >.7 4 7. .6.B x B D.5 b l @.l ; z r 4 5 - 4 o.P.$.9 y 3.O.; o."
};
