/* XPM */
static char *b2JhbGw_[] = {
/* columns rows colors chars-per-pixel */
"64 64 234 2 ",
"   c #020303",
".  c #070908",
"X  c #0B0C0D",
"o  c #060807",
"O  c #0E0F11",
"+  c #0F1012",
"@  c #111214",
"#  c #141519",
"$  c #17181B",
"%  c #1A1A1E",
"&  c #18181A",
"*  c #2E341B",
"=  c #1C1D22",
"-  c #211E26",
";  c #1F2025",
":  c #212126",
">  c #25252B",
",  c #29282D",
"<  c #272731",
"1  c #292932",
"2  c #282633",
"3  c #312F36",
"4  c #35333A",
"5  c #39393D",
"6  c #1D271E",
"7  c #771B11",
"8  c #752E1A",
"9  c #6E1A22",
"0  c #533534",
"q  c #6B3821",
"w  c #4F261C",
"e  c #2B4B1D",
"r  c #264517",
"t  c #334E1E",
"y  c #3A4219",
"u  c #2D531A",
"i  c #2B551B",
"p  c #34561D",
"a  c #2D4C22",
"s  c #2C4B27",
"d  c #324E24",
"f  c #344C2A",
"g  c #3C4B29",
"h  c #2E5324",
"j  c #2E532A",
"k  c #345424",
"l  c #395525",
"z  c #355A24",
"x  c #3A5B25",
"c  c #35542A",
"v  c #3A552C",
"b  c #355B2B",
"n  c #3C5B2C",
"m  c #384D32",
"M  c #365231",
"N  c #3B5532",
"B  c #3D5B32",
"V  c #3E5739",
"C  c #3D5C39",
"Z  c #325831",
"A  c #3C6225",
"S  c #3D622C",
"D  c #34632A",
"F  c #3D6233",
"G  c #3D623A",
"H  c #3D6B36",
"J  c #2E6025",
"K  c #494B2A",
"L  c #415D2D",
"P  c #45552C",
"I  c #425D34",
"U  c #435D3B",
"Y  c #425538",
"T  c #564732",
"R  c #6D4B2B",
"E  c #42642D",
"W  c #43692C",
"Q  c #436334",
"!  c #496535",
"~  c #446935",
"^  c #4A6C34",
"/  c #45633B",
"(  c #4A653B",
")  c #456A3B",
"_  c #4B6B3C",
"`  c #516D3E",
"'  c #50653E",
"]  c #4C713C",
"[  c #4A7236",
"{  c #53733D",
"}  c #54793D",
"|  c #54783A",
" . c #60643E",
".. c #3A3B42",
"X. c #413E47",
"o. c #3F424C",
"O. c #3B6340",
"+. c #44444A",
"@. c #475744",
"#. c #4D4B54",
"$. c #514D58",
"%. c #55565B",
"&. c #515B4D",
"*. c #774F59",
"=. c #4A6542",
"-. c #4D6B42",
";. c #466843",
":. c #526D43",
">. c #536E49",
",. c #566346",
"<. c #4D7342",
"1. c #4C774A",
"2. c #537344",
"3. c #597545",
"4. c #547A45",
"5. c #5A7B45",
"6. c #55734A",
"7. c #5A754C",
"8. c #557B4A",
"9. c #5B7B4B",
"0. c #586655",
"q. c #5C7C52",
"w. c #587851",
"e. c #4D7751",
"r. c #627E4D",
"t. c #617D53",
"y. c #627E58",
"u. c #5B5966",
"i. c #5B5C7A",
"p. c #625E6B",
"a. c #6A5B66",
"s. c #725863",
"d. c #5A6165",
"f. c #64616D",
"g. c #656768",
"h. c #656474",
"j. c #727375",
"k. c #950D0F",
"l. c #B60A0E",
"z. c #932519",
"x. c #8A3A36",
"c. c #AF2926",
"v. c #AC3531",
"b. c #911E23",
"n. c #C6070D",
"m. c #DC1414",
"M. c #D81617",
"N. c #CF1113",
"B. c #E01615",
"V. c #E51A1B",
"C. c #E9201F",
"Z. c #C72A28",
"A. c #D23636",
"S. c #EC2624",
"D. c #F32927",
"F. c #FA312E",
"G. c #EB3534",
"H. c #FE3432",
"J. c #F73634",
"K. c #E6302F",
"L. c #944133",
"P. c #FD403E",
"I. c #BA3D41",
"U. c #82525B",
"Y. c #92454B",
"T. c #A74449",
"R. c #B94145",
"E. c #FC4746",
"W. c #FC5655",
"Q. c #FE504F",
"!. c #FE7271",
"~. c #D64E4B",
"^. c #5D824D",
"/. c #578246",
"(. c #5D8352",
"). c #5F8258",
"_. c #63834D",
"`. c #63894B",
"'. c #638749",
"]. c #638454",
"[. c #698652",
"{. c #648B55",
"}. c #6A8C54",
"|. c #658459",
" X c #648B5A",
".X c #6C8C5C",
"XX c #6A865B",
"oX c #6D925C",
"OX c #669159",
"+X c #72965E",
"@X c #6A8D61",
"#X c #6E9562",
"$X c #769B63",
"%X c #769866",
"&X c #778475",
"*X c #829D6D",
"=X c #83A46B",
"-X c #7A7984",
";X c #716F91",
":X c #7E7DA7",
">X c #858786",
",X c #898996",
"<X c #969699",
"1X c #908F94",
"2X c #8D8DB3",
"3X c #9897B8",
"4X c #8E8EA8",
"5X c #A6A6B4",
"6X c #AAAAAD",
"7X c #FD8787",
"8X c #FE9A9A",
"9X c #FDABAB",
"0X c #A9AAC7",
"qX c #AFB0C2",
"wX c #B8BAC8",
"eX c #BABCD4",
"rX c #C1BFCA",
"tX c #BEC2D7",
"yX c #C8C8CA",
"uX c #C3C5DA",
"iX c #C7C9DE",
"pX c #C9CADE",
"aX c #CACBD5",
"sX c #D7D7DB",
"dX c #CFD1DD",
"fX c #CBCDE1",
"gX c #DBDBE3",
"hX c #D5D6E5",
"jX c #CFD0E3",
"kX c #E5E5EA",
"lX c #EBEBF2",
"zX c #FEFEFE",
"xX c #F4F4F5",
"cX c #F0EFF5",
/* pixels */
"W p +X.X) / c Q n 5.r.2.l c U V m Y f I I XX/ b Q b ^.#X2.( 3.6.:.U U 6.( v ( :.v n [.{ 8.n n ! n a n s v b a q.@Xs B N ;.U >.=.",
"A ^ %X^.Q Z n _ 9.2.5.! L f U V v Y s N I XX<.! ] 4..X}.! B :.7.=.B =.I / f :.! Q z 2.n _ r._.Q _ @Xb r B / / 7.6.M M c / -.>.6.",
"} .X+XQ n B -.9.2.E _ ` ( d B v Y Y f v I |.2._ 4.(.XX2.v c ( 6.B U :.N U v 6.B _ k _ n E 8.%X_.! q.q.B n w.n 7./ ) N k U _ C w.",
"_.$X_ k F -.2.2.n u E ` ! L I U U U N I N 9.( Q 6.8._ n n N B =.v U / ( ( -.:.n :.n _ ^ ! E }.%X2.n XX(.c w.v 6.C / / c F / C :.",
"9.#Xc n / <.C B ! x L E ! 3.( :.:.,.( I n -.B n 8.2.B B -.;.B =.I I B :.7.6.-.( 3.( n ! 3.L ` oX#X:.I r.P _ _ ( B n 2.C / F ;.) ",
"{..Xb / B / / ) ` ^ W E 5.[.I n 7.:._ N v ! C Q 2.;./ ( 6./ U -.:.n I / XX( 2.2.:.3.L L r.! E 3.[.r.! E Q ` n _ ] F q.) <.F ;.) ",
"oX8.Q b Z / q.4.E ^ } E $X[.x c 3.:.:.L n Q I / ( ( / ;.;.;.C C :.B B ( XXQ _ 7.( 2.Q ! ` ! ! ` P ` ` L E ` l _ 9.2.8.) 4.H F <.",
"4.h G h G / (.n k W }.p =X} n 2.` ( ` I L I B n ;./ / C =.;.=.N ) Q n 2.(.Q n 3.3.` L ` 3.` ` L E ! l ' ` x 9.n 8.^.) F 8.] b (.",
") b b h G w.<.h x `.W | =X[ E ^ ` ^ P u L _ I c B / / N ;.C ;.C v ! Q %X2.Q ^ Q ! ( ! ( ( ` ` ` E ! L P ! 2.2.E _ }.F <.) <.] 8.",
") b h b 8.w.b b k '.W /.}.'.E E W E p P ! _ n k v I C N / / / F <.z 8.%Xn E _ Q ! L L Q ` :.` ( ! ! L x L { _ Q Q 7.~ 4.<.] ] (.",
"H b j / @X1.a F S | E | } ^ L x P p p P ! ! P P k I v Z C _ G ~ 4.z %X#XQ ] Q ! L x L I ' ` ' ' ` _ ! L E 3.4.! x 2.<._ _ ~ <.(.",
"n z ~ 8.).G h ) ] W E ^ ^ u E E p A ^ ' L E ` ! k L v n B <.G ~ ~ ] $X2.2.4.n ` Q n L I I P ! 3.{ ` ` ! ! 3.9._ b 4.3.b b F <.<.",
"h z 9.).) b Z ] /.A A W ^ E [ E p W r.| P ! ` Q I I I Q ~ 9.~ ~ W `.oXA W | } 3.` L l v I P ( :.' ! { ! Q 4.]./ B _ :.z v c ! ) ",
"i D {.(.h b _ ] '.[ p A W r.^ t W '.'.^ p ! 3.{ ( ! ( P K T q R R R  .P I } }.{ [._ t t I ( ' ( ! ! 3.2.! 9.[._ Q l / I / c n F ",
"u H (.] b -.4.) `.} p S | 5.S ! '.}.} P x _ 6.-.P q z.l.N.M.C.D.J.G.K.Z.v.R ,.! .X` g d I :.' I ! Q 2.2.Q q.@X-.n a B n ( ( U B ",
"A ] 4.H ) (./.] }.[ A W }.~ ~ $X}.}.| L { { P z.l.M.V.V.S.D.F.H.H.H.H.H.P.W.~.L. .3.I l L ( :.( F Q :._ L r.#X2.k k C a n ].6.n ",
"A ] ] z n .X~ 5.5.^ W `.] A $X`.+X| ! '.y q l.B.B.V.V.S.F.F.H.H.H.H.H.H.7X9X9X7X~.q ( n Q 4.2.-.U v U l ! r.*XP u p k Q c S }.Q ",
"A ~ ~ u ^ r.! ] _ ! ! 5.| [ oX^.{.| E y z.m.B.B.V.C.S.F.F.A.R.R.R.A.J.J.!.9X8X7X!.E.c.K 2.4.G x N f P v { } *Xl p t B _ z k 2.} ",
"H F Q c 6._ Q B / Q _ ] [ ] /.| H _ K k.m.B.B.B.V.C.D.D.T.s.i.h.h.s.T.J.P.!.7X!.!.Q.H.Z.T ( z / I N d n r.{ [.E t t ( ] ! ~ ^ 9.",
"/ / b / 6.n B N / I ( / ) <.Q ) A P k.N.m.m.B.V.V.C.S.I.a.,XqXwX0X,Xp.R.H.P.W.W.Q.E.H.H.Z.K b 8.>.>.d l r.{ [.E p l Q -.4.8.] ] ",
";.;.j ;.U M V V V f U V / ) Z 4.g k.n.n.m.m.m.M.Z.Z.v.*.-XpXuXeXuXpX-Xs.I.A.G.J.H.H.H.H.H.Z.P w.>.y.I v 3.5..X{ ] B j ) 8.<.] ] ",
"C C s G M V @.=.V M U N B C N / 7 n.n.m.N.c.x.*.s.a.p.p.5XgXaXkXaXgX5Xf.f.a.s.U.T.I.G.H.H.H.c.;.V :./ n _ '._.^ _ b b 1.4.G ] <.",
"j M j M m O.=.C V m V N N V v w l.l.n.b.0 $.p.h.p.p.p.p.5XlXgXkXgXkX5Xp.p.p.f.f.h.p.U.R.G.H.F.R a I :.! ^ ^.] n F j <.(.<.) ] ] ",
"j s C s V @.=.M m M M M N / f k.l.k.0 X.X.$.$.+.4 2 4 %.-XyXlXcXkXrX-X$.1 > 4 X.%.p.h.h.U.A.H.Z.* ( y.2.^ 9.E x Q S @X;.j ^.8.H ",
"j Z h B N / / U =.=.Y a l N T l.9 0 ......< # X o o X 4 p.j.4X<X1X-Xp.3         O 1 $.p.f.a.T.G.8 v ) 2.4.] Q x S ) 8.G F e.H H ",
"G ] ~ F v 6.>.:.=.=.I v n K 7 9 4 X.3 = + X X X O O O # 5 u.p.a.u.u...@ o o o o     X : #.p.f.T.c.Y _ _ { _ A l I 1.C G ;.<.<.D ",
"S <.8.H b 9.6.1.:.( ( ( U * w 1 3 > O O O @ @ O @ @ @ O @ > 4 5 4 > O X X O X o . o     X 3 %.p.Y.T 2._ ! E E l B ) c ) 1.) -.G ",
"D ] OX<.H ^./ <.2.I ( :.U * - > = + O O O @ O @ @ O @ @ @ O O O O O O O O O O X X . o       - $.p.K :.! E ! E n b N -.G G ) F <.",
"[ ] OXOX1./.D ;.-.c Q <._ ; = # X O @ @ + @ O O @ @ @ @ O @ @ @ @ @ @ @ @ @ @ O O X X .       & $.#.@.Q x E L x v I 6.G Z G b ) ",
"H H /.OX/.H Z (._ h / _ / 6 # + @ + @ @ @ @ @ @ @ O @ @ @ @ @ @ O @ O @ @ @ O @ @ + O X .       - +.I n P l l p I 1.B C C N G c ",
"D J H OX/.H ;.@X/ j ~ / B # @ @ + @ @ @ + @ + @ @ O @ O O @ @ @ @ @ @ @ O @ @ @ @ @ @ @ O .       : N P l t l l -.-.c C ;.Z B c ",
"D D H $X XH ] @XF j ;./ M O + @ @ @ O @ @ @ @ + @ @ @ @ @ @ O O @ @ O @ @ @ @ @ @ @ @ @ @ @ X       f ! x t l Q 2.B / C / / b ) ",
"Z D OX{.$XD <.].n ( =.` g @ @ @ @ @ @ + + @ @ @ @ + + + + + + + @ @ O @ # O @ @ @ @ @ @ @ @ @ X     r ] v k e 7.` n B ) ~ G H ) ",
"O././.H OX[ [ 8.k B I U P X.@ @ + + @ @ @ @ + @ @ + # @ # # # # # # # + @ # @ @ @ @ @ # # @ @ @ . & v H z ) L _ ! B ~ <.) H <.1.",
"1.).H h ^.} x 4.c / U I f g.1 O @ @ @ @ @ @ @ # $ $ $ = = = = = = = & = $ $ # # # @ + # @ @ @ @ @ g.6.) k _ ) _ n B ~ -.) ) <.<.",
"e.(.Z h /.] z <.B Q v n m p.>X= + + @ @ @ # $ = = ; ; : : : > > > - : : = = % = $ # # + @ # @ @ g.<X6.4.! ) B Q n n F ~ H ) H D ",
"(.e.J J ) H b ~ / -.:.7.U X.3X-X% @ @ @ # % ; > > > > 1 1 1 < 1 1 1 < < < > : : ; ; # # @ @ @ %.sX*XG ] ] _ n k c b F ~ G ~ ) ) ",
"e.e.O.Z h b H F Q -.w.XXt.m ;X3X>X1 O # # ; > > < < 1 1 2 2 1 1 1 1 1 1 1 1 > > > ; = $ @ 6 g.gXkXd.F Q F _ ) ! z k F H D n ;./.",
"1.O.1.H F z / <./ v a ( .X|.i.:X3X6X&.% # : > 1 1 1 1 1 1 1 1 1 1 1 1 1 1 1 1 1 > > ; ; 0 <XkXzXrX7.L / b z Q 2./ S F F b D <./.",
"O.O.1.O.<.z G  Xv / B v ! r.%.:X:X2XqX1X#.> > > 1 1 1 1 1 1 1 2 1 1 1 1 1 1 1 1 > > o.j.yXzXzXxXj.r.k 4.Q e a n @X<.b F F F <.1.",
"O.Z H H ~ h %X6.a ( N v L L ' i.:X4X2X0XyX5Xg...1 2 1 > < 2 > < 1 < < < 1 1 1 5 %.1XyXxXzXzXzXyXU ].a [.b k k z 8. X8.D B z 8.] ",
"Z j Z D F H %X<.F -./ I v l ! @.;X:X2X3X0XfXdXyX6X1Xj.u.#.o...4 4 ..+.#.g.j.<XyXkXxXzXzXzXzXxXj./ ].h .XB z ) 1.) 8. X<.G H <.(.",
"O.j j h S (.#X] j c 6.7._ I L l u.:X:X2X0XeXtXfXpXdXjXjXsXaXyXyX6XyXsXkXkXxXzXzXzXzXzXzXzXzX6Xg ( @Xx @XF k <.^.k ) OX X~ Q Q @X",
"1.J h D [ +X^.~ F c -.6._ _ E ! m ;X:X2X3XeXtXuXiXfXjXhXkXlXzXzXzXzXzXzXzXzXzXzXzXzXzXzXzXrXY ' ! %XF .XQ b <.1.h ]  X X/ Q H (.",
"oX~ J W 4.+X[ W 9.n -.2.:.` E ! L m ;X2X3X0XtXfXtXfXfXjXkXlXxXzXzXzXzXzXzXzXzXzXzXzXzXzXsX&.! 3.n .X( [.F ) 8.) H (.^.^.H n Q ) ",
"$X} A [ /.`.W ] 4.n C 2.3._ L E 5.5.Y ;X3X0XeXfXfXfXfXhXkXcXzXzXzXzXzXzXzXzXzXzXzXzXzXaX&.! r.3.v t._ 2.n <._ F ^. X<.1.Q b Q b ",
"+X/.W | `.| A [ 8.B e v / I ! 9.}.'.p f ;X0XeXeXfXfXjXhXkXcXzXzXzXzXzXzXzXzXzXzXzXxX5X@.l r.r.! v _ _ _ b <.H ) (.1.<.) ) n b z ",
"/./.[ } }.| p ~ _ F a / 6.Q ` _.` { r n ( d.3XfXfXfXfXfXlXxXzXzXzXzXzXzXzXzXzXzXkX*XY P p r.r.t P n Q _ n 4.~ (.(.D ] G _ n d n ",
"~ _ ] 4.(.n / C 2.C N 6.Q _ 2.7.! v v g 7.Q &.-X5XiXfXfXfXhXlXxXzXzXzXzXzXzXgX<X0.E 5.{ { [.^ p v U d ! A W } r.` 8.b N -.n z l ",
"^ S Q 8.<.k B v / I / -.C _ :.:.:.@.U N 3.( ` ( Y g.,X5XwXtXuXfXjXgXhXyX6X&X,.! r.^ 3.! | _.W P k I l P P | { 3.Q r./ v C k l v ",
"i z _ 7.Z c F c B C _ I I U -.( :.7.B P :.' ! P n ! C m @.%.d.g.u.&.0.r.3.! _ 2.` ^ 3.L r.r._ _ L Y l l A | | | n 2.F n Q S t r ",
"h n F ] v Q G N N N ( B I v ( Q U :.v Y ( ,.! v n P L v l v v v Q k I |..X3.( ! ` ! { P r.{ Q ! :.! e l A [ './._ _ c e n ! ! E ",
"8._ j z C H N ) B N Q v I c I ( L I a I I 3.` v v l l v v v v Y B ( I Q t.[.( k ! ! ! l 7.L k l _ :.d p ! [ '.W 4.^.8.4.) n x W ",
"~ 4.8.D h -.) / B I I N I v L ' I v d ! P ` 3.L l l d d v v f I / :.U v :.:.B n ! v I n 3.L n L v 3.^ p W 5.'.i S ] @X$X#X_.E E ",
"D ] #X<.h ) 9./ n / P v Y I P ( ( v v ` k L 9.! l I P d N N v @.>.I I I I v v I Y k k Q :.I ( _ P _ 5.p ^ '.| i u z ] ^.}.$X+X$X",
"%Xh /.(.b b q.4.c _ v v v ;.P I -.g ! 3.r t r.3.I 3.( v U U I w.6.V B U f B -.v I d d U / n Q ! _ l [.E | '.A A A H ^.] ~ _.}.+X",
"$X8.H ].z ~ 4.I v 2.l f v v 3.Y :.L I I l E ` 5._ 7.q.7.:.:.U 7.-.N =.B >.U v :.d N N / N v -.( ( z Q [.'.[ A A J } {.i ~ ! 4.}.",
"(.4.S 8.z 2._ z ! n Q I l ! :.( :.Q ! ( L n _ :._ d :.t.;.V U U U =./ V =.U ( =.d v n / ( v I v f k ` }./.W A z S {.b H ~ b W ^.",
"2.4.F Q k 9.n z Q z 2.3.d c :.7.=._ Q ` ! l _ ! ! v 6.( I I ( V =.>.f v 6.=.>.N B / I U 7.( ( v d ( [.[.[ p z p ] ) h ).z h E n ",
"/ 4.! u Q 9.k k x Q / 8.B r :.q.( 3.I 2.( v ( L I 3.t.I :.( I ;.y.U c U :.U -.B :.7.N v 7.|.-.N B 7.|.3.S x x z ) e <.6.B B ^ z ",
"k Q ( t 3.5.x x ! _ z ~ 2.B ) w.( >.N ;.-.z Q n n _ 2.6.8.( a 6.q.f >.:.f d -.-.6.y.v d U %X:.v U >.=.v d x x z f e.|.j >.-./ Q ",
"v n I x 9.` ! 5.] ~ ! b -.<.c |./ ;.c G _ B B n L F _ 8./ _ / q.=.c q.U a N :.=.( y.( k U %X:.v @.=.Y d k n c j N %X;.j V C -.n ",
"( L P 5.5.Q _ '.2.] 8.S Z ~ j w./ C j N -.) n n Q Q _ ! _ 6.6.|.( ( / d / :.-.( ( >.7.n I 9.:.Y U @.N k v z j c w.w.M @.M M =.v ",
"I n n *Xr.n p ! '.^.] S b b G F G N k N >.2.n L n Q ^ { %X3.B y.I 7.v f y.I v -.I ( XXn I I _ I M Y M f v k d ~ &X;.M C 0.=.f ( "
};
