/* XPM */
static char *cnJhdA__[] = {
/* columns rows colors chars-per-pixel */
"64 64 238 2 ",
"   c #2C3B2B",
".  c #303E2A",
"X  c #342E3B",
"o  c #363A38",
"O  c #5E132F",
"+  c #771229",
"@  c #254517",
"#  c #2C4B1D",
"$  c #314D1C",
"%  c #2C541B",
"&  c #34541E",
"*  c #2D4527",
"=  c #2D4E23",
"-  c #324D24",
";  c #334D2A",
":  c #34492D",
">  c #2E5324",
",  c #2E532A",
"<  c #345424",
"1  c #3A5525",
"2  c #355A24",
"3  c #3A5B26",
"4  c #35542A",
"5  c #3A552C",
"6  c #355A2B",
"7  c #3B5B2C",
"8  c #394637",
"9  c #354A31",
"0  c #3D4A3B",
"q  c #355232",
"w  c #3A5532",
"e  c #3C5C32",
"r  c #3C5938",
"t  c #2E6025",
"y  c #386227",
"u  c #3C622D",
"i  c #3D6233",
"p  c #3D6B36",
"a  c #3D623A",
"s  c #40572B",
"d  c #425D2D",
"f  c #434C3E",
"g  c #425D34",
"h  c #42543B",
"j  c #435D3B",
"k  c #475C39",
"l  c #42632D",
"z  c #44672C",
"x  c #436334",
"c  c #496534",
"v  c #446935",
"b  c #496C34",
"n  c #44643B",
"m  c #49653C",
"M  c #456A3A",
"N  c #4B6B3C",
"B  c #516D3D",
"V  c #497237",
"C  c #4B723D",
"Z  c #53733E",
"A  c #527939",
"S  c #3A2C42",
"D  c #3C3741",
"F  c #442B4D",
"G  c #44334A",
"H  c #443C49",
"J  c #4C2D55",
"K  c #4F2D58",
"L  c #5C2554",
"P  c #522C5A",
"I  c #4D3354",
"U  c #4F3F53",
"Y  c #55305D",
"T  c #543B5A",
"R  c #593C5C",
"E  c #5A2F62",
"W  c #5A3762",
"Q  c #5B3364",
"!  c #612D60",
"~  c #64356B",
"^  c #643A6B",
"/  c #663C69",
"(  c #6B3672",
")  c #6C3A74",
"_  c #6F3B78",
"`  c #753B7C",
"'  c #743C7C",
"]  c #3E4241",
"[  c #3B6340",
"{  c #464648",
"}  c #4A5945",
"|  c #52544F",
" . c #544558",
".. c #4B6542",
"X. c #476944",
"o. c #4C6C42",
"O. c #526D44",
"+. c #536749",
"@. c #4E7342",
"#. c #4C774A",
"$. c #537344",
"%. c #597545",
"&. c #547945",
"*. c #5A7A45",
"=. c #55744A",
"-. c #59754C",
";. c #557B4A",
":. c #5B7C4C",
">. c #5E6A52",
",. c #4E7852",
"<. c #587752",
"1. c #5C7C52",
"2. c #617D4C",
"3. c #646D57",
"4. c #647557",
"5. c #5D4B63",
"6. c #674669",
"7. c #704B6B",
"8. c #695367",
"9. c #76576E",
"0. c #75427B",
"q. c #784B7A",
"w. c #7A5778",
"e. c #75686B",
"r. c #6F7861",
"t. c #767C66",
"y. c #7D6375",
"u. c #9A131A",
"i. c #8D1A2D",
"p. c #A8182A",
"a. c #8A2335",
"s. c #913947",
"d. c #AD2F42",
"f. c #934756",
"g. c #8F596D",
"h. c #B05B69",
"j. c #86687A",
"k. c #8F7570",
"l. c #867B76",
"z. c #C4737F",
"x. c #578246",
"c. c #5C824D",
"v. c #5D8352",
"b. c #5F8258",
"n. c #63834D",
"m. c #62894A",
"M. c #638454",
"N. c #698555",
"B. c #638B56",
"V. c #6A8B55",
"C. c #648459",
"Z. c #648B5A",
"A. c #6B8D5D",
"S. c #738E5A",
"D. c #65925B",
"F. c #6C915E",
"G. c #72955E",
"H. c #6B8C62",
"J. c #7B846B",
"K. c #6E9663",
"L. c #729362",
"P. c #769B64",
"I. c #779968",
"U. c #868975",
"Y. c #99867A",
"T. c #889B72",
"R. c #8E927B",
"E. c #B0867B",
"W. c #7C3D83",
"Q. c #7C4284",
"!. c #7C4484",
"~. c #803F87",
"^. c #823E8A",
"/. c #83438B",
"(. c #83498A",
"). c #874790",
"_. c #8A4692",
"`. c #8D4995",
"'. c #8F4998",
"]. c #904B97",
"[. c #914B99",
"{. c #915594",
"}. c #906C8E",
"|. c #8B7781",
" X c #9E5FA0",
".X c #A770A5",
"XX c #96888F",
"oX c #9C9B87",
"OX c #A6858C",
"+X c #A79C89",
"@X c #A89797",
"#X c #A5A48D",
"$X c #B5A689",
"%X c #ABA896",
"&X c #B5AB99",
"*X c #B8B59D",
"=X c #B38EA9",
"-X c #AEAEAA",
";X c #B9B4A3",
":X c #BCBBA2",
">X c #C4AD96",
",X c #CABA99",
"<X c #C3BDA6",
"1X c #C6ADB4",
"2X c #D3C39C",
"3X c #C6C3A9",
"4X c #CCC9AE",
"5X c #DBCAA1",
"6X c #CBC7B2",
"7X c #D2CDB2",
"8X c #D8C6BD",
"9X c #D5D2B6",
"0X c #DAD6BA",
"qX c #DDDABC",
"wX c #E7D4AA",
"eX c #E7D5AA",
"rX c #E3DCBC",
"tX c #F7E3B5",
"yX c #FFEBBB",
"uX c #C2BEC4",
"iX c #C8C7C7",
"pX c #D7CCC8",
"aX c #D1D0CF",
"sX c #D7D7D7",
"dX c #EADDCA",
"fX c #E5E2C3",
"gX c #E9E4C5",
"hX c #EBE8C7",
"jX c #EDEAC9",
"kX c #F1EDCC",
"lX c #F1ECD0",
"zX c #F6F2D1",
"xX c #FAF5D4",
"cX c #FDF9D6",
"vX c #FFFCD9",
"bX c #E0DFE0",
"nX c #E7E8E8",
"mX c #F9F8F8",
/* pixels */
"z & G.S.n n 4 x 7 *.2.$.1 5 j r * o S K J ] 9 > a 3 v.G.$.c %.=.+.g j -.n 5 m O.5 7 N.Z -.u 3 c i = 4 = 4 4 < 1.C.; r e ..j =.} ",
"y b P.c.i e 7 N :.$.%.B 7 - j . G ' _.[.[._.) o v &.A.A.n d O.-...g o.g n ; O.c x < $.7 Z :.n.x N A.e @ r n a -.=.q 4 ; n o.o.-.",
"A S.A.x 7 e @.:.$.l N B m -   P `.[.[.`.[.[.[.Q.0 1.Z.$.5 4 m =.r k ..5 k 5 =.e m < B 7 u *.I.2.n 1.1.e e -.5 :.N m 6 4 j M a :.",
"n.I.C < a N O.$.7 $ z b c * P ].`.) K J Y Q.[.[.~ X.N 7 e 7 e ..4 n n m m ..O.7 B d N b x l V.I.$.7 C.2.4 1.4 -.j n n 4 a n r O.",
"c.F.4 7 n @.e e c 7 7 l 5 F _._.Y Y Q.).Q.Y _.[.Q.0 e e ..m g ..e g e O.-.=.O.c %.m d c %.d B S.L.$.k 2.d B N n e 7 $.e n i M X.",
"B.A.6 n e m n M Z b z 3 o Q.].W Q ].].].[.^ Q.[./.] a m =.m r X.O.g e m A.m O.=.B $.7 7 } { 8 Z N.2.c d d B d N N a :.M $.i M M ",
"F.&.x 6 6 a 1.$.u b *.# Q [.Q.K `.[.[.[.[.` ' [.Q.D m X.#.} r n O.e 7 m A.e N -.m =.d { ~.`._ f s B B s c B 1 N :.$.;.M &.p i @.",
"&.> a > a n b.e < l n.S _.[.~ _ [.[.[.[.[._ W.].` 8 a j ..X.X.q m x 7 -.:.x 7 *.%.B 9 W.[.0.j. .9 B & B b 7 *.7 :.n.V a ;.X.6 v.",
"M u 6 > a 1.X.> 3 m.4 ( [.[.E Q.[.[.[.`.~ P Y ^ Q : n e X.a m a 4 v x I.$.l n x c k R [.(.Y.2XY.U s d s c $.Z x M B.i @.M &.N x.",
"M 6 = 6 ;.,.u 6 2 :.D _.[.].E ).[.[.`.! Q.]._.' S w r 4 ..a m r $.< *.I.7 x b x c 0 /.].9.2XeXeX9.f d 1 d Z B l x :.v $.@.C M v.",
"a 6 > M H.#.= i u x ~ [.[.[.E !.[.[.) _ Q.0._.[.W.D 4 7 e X.x v &.2 G.A.7 N x v 7 T [./.k.eXyXkX$XU x d l %.%.v 3 &.@.N M M @.v.",
"y 2 a ;.b.n = C Z . /.].[.[.Q ~ _./.Y _.6.l.7./.[.0.o 7 e @.a r r { 8.5.^ 5. .{ 9 ^ [.!.$XtXyXyXeX5.k c c %.:.N 3 $.%.6 7 i @.#.",
"> 2 ;.Z.a 6 6 N $.I ].[.[._._ F W.~ ( !.Y.5X$X7.`.[.^ w a $.0 6.Q._.].[.[.[.].`.Q.~ ( 7.,XyXyXyXtXl.f M x *.n.n 7 m $.< 4 4 v N ",
"% y b.v.> 6 o.V .._ [.[.[.Q.W.E F P /.q.2XtX5X$Xq.`.`.{ w  ./.`.[.[.[.[.[.[.[.[.[.[.Q.R $XyXyXyXyXE.{ N x :.N.N x < n g n < 5 x ",
"% v v.C 6 @.&.M } /.[.[.`.W.W.F m { /.l.yXyXtX5XY./.[.W.I ).[.].[.[.[.[.[.[.[.[.[.[.[._.9.2XyXyXyXOX| o.n c.H.O.7 = e 7 m ..j e ",
"y C &.p M v.x.v  .`.].].).~.~ +.n. ./.$XyXyXyXtX2X9.`.`.) `.[.[.[.].[.[.[.[.].[.[.[.[.[._.y.eXyXtXj. .N g *.L.=.< < e = 7 M.=.3 ",
"u V C 2 7 A.b N W [.[.]./.W.{ c.N./ !.2XyXyXyXyXeXY.(.[._.[.].[.[.[.[.[.[.[.[.[.[.[.[.[./.Q +XyX$X` { < c 2.T.s $ & > x 5 u V.x ",
"u z v & b :.c w _ [.[.`.W.( ..m.c.) q.eXyXyXyXyXyX,Xw.'.[.[.].'.[.[.[.[.[.[.[.[.[.[.[.'.}.XX8.XXj.~ 9 d Z A S.z 1 & g n < & Z &.",
"i i i < =.N x . W.].].).W.Y N C 6 _ j.eXyXyXyXyXyXeX9._.(.).`.`.'.[.[.[.[.[.[.[.[.[.'.^.7.uXw.) _ 8 - s 2.Z V.d $ # N Z n v b c.",
"N M 7 a =.e r X ).[.]./.W.o i V 2 / 0.5XyXyXyXyXyX+X!._.) y.q._ Q.).`.[.[.[.[.[.[.[.'.g.+ g.XX] ..+.< 1 2.B 2.g < < n C &.:.C V ",
"X.X., ..n q r S _.[.].~.( 9 e #.a  ./.l.eXtXtXeX;X7.'.'.}.nXXXO Q W./.].[.[.[.[.[.[.[.Q.k.a.OX} =.4.g 5 4.R.J.g N e < M ;.C @.C ",
"r a * [ 9 w } F `.[.[./.Q 9 4 o.e * ' /.w.j.j.q.W !.'.).-XmXf.u.+ / ` _.[.[.[.[.[.[.[.).1Xd.g.8.q o...oX:XR.:.N C 6 6 ,.;.i V &.",
", q , q q r X.F `.].`.Q.K q e g o.6 w W _ W.0.7.P !.'.!.uXsXa.u.h.pX9.W.'.[.[.[.[.[.[.!.f.p.s.XXf t.9X*X>.*.Z u 7 < @.v.X.C C C ",
", = r , r } ..F `.].`.W.F j N e X.6 r q , j <.-.W [.'.W.iXsXi.u.h.mXOXL Q.[.[.[.[.[.[.'.7.E.&X6X%XrXoX..b x.l 3 v i Z.X.6 :.#.p ",
", 6 , 6 q n m J `.[.`.W.S w -.r =.6 =.X.4 m =.| /.].[.Q.pXbXa.p.p.z.d.+ W.`.'.].[.[.[.'..XxXvX0XqXU.g Z $.Z l 7 i M ,.a p ;.M p ",
"i @.M i 7 O.+.F `.[.`.` o 5 =.n o.e r #.w w X.H Q.). XOX-XnXf.p.p.p.s.k.` _.].[.[.].[.W.=XcXvXjX#X} N B N b u 2 a @.e a @.X.@.6 ",
"u #.;.a 6 v.-.S `.[._.` o < N n >.U.%X3X4X7X4X;X@XXX-XdXqXdX<X>X&X7XgXxX=X~.^._./.]._.` 8XvXvXjXfX3.O.N v x l 1 e M 4 a #.M X.i ",
"y A v.&.i v.M D ).].`.` 0 < 7 h >.t.J.U.oX#X:X9XkXxXzXxXvXvXvXvXvXvXvXvXkX=X{.` ( W./.;XlXcXvXvXlX3.=.c l z z 3 5 7 X.n a M i @.",
"V C D.D.p x.6 8 /.[._.W.] 6 i N X.=.e @.4 X.n H j.&X7XzXcXvXvXvXvXvXvXcXxXvXdX1X=X=X1XqX7XvXvXvX9X} O.d d l d 1 4 a -.a r a 6 X.",
"p p x.D.x.p e [ W.[.[.W.] x i v M X.r r e :.X.8 }.7X3XfXvXvXvXcXvXvXvX7X#X&X7XrXdXqX4XU.7XvXvXcXR.+.m d 1 1 1 < x $.r r r 6 i , ",
"y t p D.v.C p ,.^ [.`.W.H x x n x a 7 e e $.@.r  .4XqXjXvXcXvXvXvXvXkX3X9X-XsXaXaXaXiX6XhXvXvX:Xh m c k 1 & & 7 N O.4 r X.w a 4 ",
"p t p K.D.p @.b.T [.[.Q.I a x n e r 4 5 g r n 6   l.9XfXcXvXvXvXvXvXzXzXjX-XmXmXmXmXaXgXvXvX4X} d g d c s $ 1 d %.r a e n M 4 M ",
"t t D.v.P.u C v.H [.[.^.! $ s s 5 k w 4 n ..q 4 D ^ l.7XzXvXvXvXvXvXvXvXxX&XbXmXsXmXuXcXcX:Xk 7 v n < N 7 & # %.N e e N M i p N ",
"[ x.v.p D.b V c.. ^.[.^.! s c 1 5 k w ; w r w 9 ~ W._ 9.*XkXvXvXvXvXvXvXvX3XuXmXiXsX9XhXoXv.&.2 &.;.v a < N d N x 7 x @.M p X.#.",
"#.b.@.% c.C y $.; ~ [.[.) . s s B s 5 +.<.} 8 W W.W.Q.).!.j.<XxXvXvXvXcXvXhX-XiX-X3X*Xr.@.B.A.&.M $.M.M 2 N N N g 7 n C M p C #.",
",.b.t > x.C 2 @.r H ^.^.g.o c c k m j q 0  .( W.W.).`.].[.`.(.pXvXvXvXvXvXvXzXhX:XJ.o.1.M u &.F.C i c.;.n n 7 x 7 7 x v M M p y ",
"b.,.t t M p 2 v n r W.]./.G 1 c B %.s X ~ W.~._.'.[.[.].[.`.[.pXvXvXvXvXvXvXxXoXh r x N m < e Z.F.a M N @.N 7 < 2 6 i M p p N M ",
",.,.[ t > y x a x N  .[._.Y s d 2.k G ` /._.].[.[.[.[.[.[.Q.!.jXvXvXvXvXvXvX&XW 9 o.n 7 a 7 e =.L.;.i x x M b n < < a p 6 u @.;.",
"X.#.#.[ 6 6 n #.n 4 o W.`.) >.B s G ` _.[.[.[.[.[.].[.[.[.).w.zXvXvXvXvXvXhXw.( : X.o.r q r n x :.M.7 N 4 < n $.M e 6 i 2 6 M c.",
"[ [ [ [ @.6 x C.6 n w W `./.| S.h ` '.'.[.[.[._.[.[.[.[.].'.w.fXvXvXvXvXvX7X_ ' 0 n m n 7 n X.- o.v.< $.x # % 7 G.@.i y i p @.#.",
"[ , a M p > I.#.= X.5 8 W.`.R O.R '.[.'.Q.Q.Q.) [.[.[.[.[.[.0.6XvXvXvXvXvX;X' _ 8 +.m j 7 ..e # n M.# C.6 > < 6 ;.Z.;.i u 6 ;.C ",
"[ , 6 t i M I.&.x o.m w T '.' X g.[.Q.E Q Q K Q [.[.[.[.[.[.!.&XvXvXvXvXvX%XW.' o o.n r r k w - b C.< A.7 2 M @.M =.v.@.a i @.v.",
"p , , > u v.K.C = 6 =.=.h 0./.P ^.W.( W.[.[._.~ Q.[.[.[.[.[.).XXvXvXvXvXvX@XW.Q.{ m x 5 k g s s N H.5 F.x < @.c.> M D.B.x v v F.",
"#.t , y V G.c.i x 4 o.=.m { Q ) [.'.'.[.[.[.[.).^ `.[.[.[.[._.|.zXvXvXvXcX@XW.[.U k d - k 1 h B m L.i A.x 6 &.#.> @.D.Z.v i i b.",
"D.b y z A G.A v :.e ..=.O...S !.[.[.[.[.[.[.[.[.W.) `.[.[.[.'.y.zXvXvXvXvXOX_.[.W g s $ d s c %.d A.N M.i M ;.M p v.c.v.a 7 x M ",
"P.A y V x.m.z C &.7 x o.$.X.D [.[.[.[.[.[.[.[.[.[.( Q.[.[.[.'.j.jXvXvXvXvXXX_.[.` g s $ s b 2.%.5 2.N =.7 @.N i ;.Z.@.#.v 6 x 6 ",
"G.x.z A m.A y A $.i # 5 n 4 W [.[.[.[.[.[.[.[.[.[.Q.~ '.[.[.[.w.fXvXvXvXvX|.].[._.h d 1 1 2.2.d 5 N c N 6 @.p M v.#.C N M 6 7 < ",
"x.x.b x.V.V & z N x = n =.9 W.[.[.[.[.[.[.[.[.[.[.`.E ).[.[.[.q.qXvXvXvXkXj.[.[._. .d d 1 n.2.1 5 7 c N 3 &.v v.c.p C a N 7 < 7 ",
"z V C %.v.7 x e $.g e O.n 8 Q.[.[.[.[.[.[.[.].].[.`.~ _ [.[.[.!.9XvXvXvX7Xq.'.[.[./ Z B Z V.c 1 5 k - c s z *.2.B %.6 e X.7 < 1 ",
"N l x -.@.4 r 5 X.r n N r 8 ).[.[.[.[.[.[.[.].`.[.`.( ) [.[.[./.3XvXcXjX+X_ [.].[.Q.B c %.n.z s 5 g 1 s 1 A A *.m :.n 7 g < 1 5 ",
"# 2 M ;.7 4 r , e r m k e 8 /.[.[.[.[.[.[.[.[.[.]./.Q ' [.[.]./.&XxXdX9Xe.W.`.[.[._.| l 2.2.N b g d 1 1 3 A A A 7 Z a 7 n d < @ ",
"< y i C 4 a x e w e m e r   W.[.[.[.[.[.[.[.[.[.[.W.K Q.[.[.].`.|.qXqXoXP W./.].[.[.6.1 2.Z c c O.k $ 1 z A *.x.N N < # 3 x c l ",
";.V > y 6 M 7 m e e j s g * Q ].].[.[.[.[.[.[.[./.) P /.`.].[.'.w.4X*X6.P ( ~.`.[.[.0.; -.d < 1 B O.& & z A m.z &.c.;.&.b d 3 z ",
"v &.,.6 6 X.M n r g g 5 g 4 o _.].[.[.[.[.[.]._.~.P ~ W./.].[.[.(.l.7.W.` P ( /.`.[._.8 %.g 1 d 5 %.b & b A m.% u V F.I.L.c.v u ",
"u C K.@.> v :.M 7 n r 5 s g : ! [.[.[.[.[.[.'.~._ l.y.' ~.`.].].`.Y W.(.{.}.7.` _.].].T N x m B 5 c 2.& b m.A % % 2 Z c.B.P.G.G.",
"I.> x.v.6 6 1.=.< m s 5 5 m g 8 ) [.[.].].'.).W.7.<X3X6.W./.'.].[._ q.1X9X9X#X6./.`.[.{.e.k g c N 1 M.l A m.& z y p c.C x m.V.P.",
"P.;.v v.2 v &.x 7 =.1 1 5 ; %.s H ^ _.]._.Q.W.Q e.*X:Xl.~ W.).[.[._.6.*X4X4XrX%X_ ~..XdXkX<XR.r.m 1 c m.m.A y y y A B.% M v *.V.",
"c.&.u :.2 $.N < c 7 x 7 4 m O.f ( /._._.Q.( Q Y w * ..-.0 ) ~._.[.[.' H +.+.3.3.G (.1XhXqXrX9X*X>.< O.V.A z y y u B.6 x v 2 z c.",
"$.;.l x < :.7 < l < $.%.< 5 O.} ( [.].].[.)._. X%XU.-.m g H W./.`. X=X=Xl...+.e 5 e.*X4X9X4X4X4X| c M.N.b 3 2 2 C p > M.< < u u ",
"n $.n % x :.< & 7 x c -.e @ o.-.H Q.[.{. X.X.X1XzXdX9XU.+.j R W./.=XxXvXfX*XR...+.=.h +.t.oXU.3.+.-.N.%.z & 3 2 v # @.,.e 7 N < ",
"< x c # %.*.3 3 n N < M $.e M 1.j { )  XdXxXzXrXkXgX3X#X4.n . / }.8XxXgXqXrX4X&X4.M.5 - n J.+.5 j +.o.7 < 7 7 < ; ,.b., =.o.n x ",
"7 7 x 3 *.Z N *.C b v 2 o.@.4 b.n m : | oX3XgXgX<X7XrX4.g N n +.+X3X0XgXfX3XqX#X+.4.n 4 g L.O.5 j } g - < 7 < = q I.X., r r ..e ",
"N d s %.*.x C n.Z Z ;.6 i M , <.a r , e m k 3.%X7X4.U.4.N =.-.2.m +.3.r.+X*XU.J.j O.-.7 x :.O.w j } w ; 5 4 = 4 <.<.q } q w ..5 ",
"g s 3 T.2.d & v n.*.C u 6 6 a 6 n w ; 7 +.=.7 g 3.} c m I.;.r M.j -.5 4 1.j 5 X.j m N.7 x g N g : h w ; 5 < ; ..H...9 r <...; m "
};
